<?xml version="1.0" standalone="no"?>
<!DOCTYPE svg PUBLIC "-//W3C//DTD SVG 20010904//EN"
 "http://www.w3.org/TR/2001/REC-SVG-20010904/DTD/svg10.dtd">
<svg version="1.0" xmlns="http://www.w3.org/2000/svg"
 width="1280.000000pt" height="861.000000pt" viewBox="0 0 1280.000000 861.000000"
 preserveAspectRatio="xMidYMid meet">
<metadata>
Created by potrace 1.16, written by Peter Selinger 2001-2019
</metadata>
<g transform="translate(0.000000,861.000000) scale(0.100000,-0.100000)"
fill="#000000" stroke="none">
<path d="M2 4308 l3 -4303 336 -3 335 -2 12 27 12 28 -5 -26 c-5 -27 -5 -27
56 -25 40 1 64 7 70 16 9 12 10 12 5 -2 -5 -16 2 -18 53 -18 38 0 61 4 64 13
4 9 6 9 6 0 1 -7 5 -13 11 -13 5 0 7 7 4 15 -4 8 -1 15 5 15 6 0 11 -7 11 -15
0 -12 10 -15 38 -13 20 1 40 7 44 12 5 7 8 7 8 -1 0 -9 19 -12 61 -12 34 1 56
5 49 9 -8 5 -3 9 13 12 17 3 24 1 21 -7 -7 -18 386 -21 398 -3 6 10 8 10 8 1
0 -9 16 -13 45 -13 29 0 45 4 45 13 0 9 2 9 8 0 9 -15 342 -16 342 -2 0 5 8 9
18 9 14 0 15 -2 2 -10 -12 -8 -9 -10 13 -10 16 0 26 4 22 10 -3 6 4 10 17 10
13 0 30 6 37 12 10 11 12 10 9 -2 -2 -8 -14 -18 -28 -22 -14 -4 4 -6 45 -6 39
1 73 6 77 12 5 8 8 7 8 -1 0 -7 10 -13 21 -13 19 0 20 2 8 17 -12 15 -12 16 3
10 9 -3 19 -1 22 6 4 7 5 3 3 -9 -4 -18 1 -21 40 -23 32 -1 48 3 57 15 11 14
14 14 27 2 20 -19 1174 -25 1197 -5 12 9 16 9 19 0 8 -24 23 -13 17 11 -3 14
-1 27 7 31 7 5 10 4 7 -1 -3 -5 -2 -19 3 -32 l9 -23 379 1 c318 1 380 4 385
16 3 8 13 13 23 13 17 -1 17 -2 1 -6 -10 -2 -18 -8 -18 -13 0 -6 429 -9 1020
-9 915 -1 1020 1 1020 15 0 14 2 14 15 0 14 -14 252 -15 2206 -16 l2191 0 -4
95 c-2 71 0 95 10 95 9 0 12 -26 12 -95 l0 -95 65 2 65 2 2 30 c0 17 2 42 3
56 2 14 3 35 4 48 0 12 6 22 11 22 6 0 10 -33 10 -80 l0 -80 74 0 74 0 4 55
c7 86 28 95 28 12 l0 -67 85 0 85 0 0 40 c0 29 4 40 15 40 11 0 15 -11 15 -40
l0 -40 90 0 c83 0 90 1 90 20 0 11 7 20 15 20 8 0 15 -9 15 -20 0 -20 7 -20
545 -20 l545 0 0 439 0 439 -27 10 c-35 13 -148 47 -186 56 -15 4 -26 10 -23
15 3 4 0 8 -7 9 -84 10 -139 20 -127 22 8 1 95 1 193 0 l177 -1 0 157 c0 178
-2 183 -77 184 -44 0 -71 19 -31 21 58 4 83 1 81 -9 -1 -5 4 -13 12 -16 11 -4
14 10 13 74 -1 64 -4 80 -17 83 -14 4 -13 5 2 6 16 1 17 178 17 3561 l0 3560
-6400 0 -6401 0 3 -4302z m3656 2807 c7 -14 12 -34 12 -45 0 -26 11 -51 20
-45 4 3 10 -4 13 -14 4 -15 -4 -23 -37 -35 -53 -21 -73 -20 -85 2 -6 9 -11 13
-11 9 0 -4 -6 -2 -14 5 -12 11 -12 15 1 30 14 16 14 20 -1 42 -9 14 -16 27
-16 29 0 2 18 10 41 17 22 8 42 17 45 22 9 15 21 8 32 -17z m295 -92 c3 -18 1
-33 -4 -33 -5 0 -9 8 -10 18 0 12 -3 10 -10 -7 -5 -13 -7 -32 -3 -43 3 -10 0
-25 -6 -33 -10 -12 -9 -15 4 -15 9 0 16 5 16 10 0 6 7 6 19 -2 15 -9 24 -8 45
5 50 33 57 25 56 -65 -1 -46 -1 -116 -1 -156 l1 -72 40 6 c33 5 40 4 40 -10 0
-9 -7 -16 -15 -16 -8 0 -15 -5 -15 -11 0 -6 8 -8 19 -4 17 5 22 -2 35 -45 17
-56 12 -179 -8 -192 -18 -12 26 -9 111 7 43 8 87 15 98 14 31 -1 -22 -21 -65
-24 -19 -2 -41 -3 -48 -4 -7 -1 -10 -6 -7 -11 3 -6 17 -7 30 -4 26 7 39 -7 44
-47 1 -8 5 -8 15 0 11 9 19 9 35 -1 25 -15 28 -33 4 -24 -10 4 -14 4 -10 0 4
-4 1 -14 -6 -22 -10 -13 -9 -14 11 -3 21 11 22 11 16 -14 -5 -19 -1 -30 12
-40 18 -14 18 -14 -1 -16 -11 -1 -28 -1 -38 -1 -11 1 -17 -3 -15 -10 8 -24
-20 -37 -161 -72 -79 -20 -145 -36 -147 -36 -2 0 -4 -9 -4 -20 0 -14 5 -18 16
-13 9 3 20 0 25 -8 7 -11 9 -11 9 4 0 10 8 18 23 19 80 5 127 18 127 34 0 8 4
14 8 14 5 0 9 -7 9 -15 0 -8 -5 -15 -10 -15 -5 0 -7 -7 -3 -15 6 -16 4 -17
-44 -19 -16 0 -30 4 -30 9 0 6 -7 2 -14 -7 -14 -19 -32 -25 -21 -8 9 14 -2 12
-30 -6 -16 -10 -32 -13 -47 -8 -13 4 -26 7 -30 6 -4 -1 -28 -4 -53 -7 -45 -6
-55 1 -33 23 7 7 8 12 4 12 -8 0 -131 -34 -166 -46 -8 -3 -17 -5 -20 -6 -3 0
-16 -6 -30 -14 -37 -20 -178 -74 -195 -74 -9 0 -15 10 -15 25 0 31 -17 33 -22
3 -2 -16 -16 -27 -48 -38 -25 -9 -65 -26 -89 -38 -25 -12 -52 -22 -61 -22 -12
0 -17 -8 -16 -27 1 -14 -5 -28 -11 -30 -8 -3 -13 5 -13 21 0 24 -3 26 -27 20
-16 -4 -34 -12 -42 -18 -7 -5 -38 -10 -67 -10 -40 0 -53 -4 -50 -13 3 -7 4
-13 2 -13 -3 0 -13 -3 -23 -7 -16 -6 -17 -5 -3 12 14 17 14 18 -10 5 -14 -7
-28 -18 -32 -23 -3 -6 -14 -12 -23 -13 -9 -1 -14 0 -11 4 3 3 -4 16 -16 29
-18 19 -20 28 -12 41 6 9 21 17 32 17 11 0 24 4 28 8 13 12 13 37 1 37 -7 0
-5 5 3 10 8 5 11 10 6 10 -5 0 -18 -8 -29 -17 -15 -13 -18 -14 -12 -3 7 13 6
13 -7 2 -13 -10 -16 -9 -21 10 -4 12 -9 20 -11 17 -6 -5 -16 -75 -17 -111 0
-19 -19 -26 -19 -7 0 5 -5 7 -11 4 -6 -4 -8 -13 -5 -21 3 -7 -3 -18 -12 -24
-16 -11 -16 -11 1 -6 12 4 17 0 17 -14 0 -14 -34 -35 -142 -87 -79 -38 -170
-80 -203 -93 -33 -14 -82 -39 -109 -57 -27 -19 -60 -36 -75 -40 -14 -3 -39
-15 -56 -25 -50 -31 -99 -51 -126 -53 -21 -1 -25 2 -21 17 2 10 8 18 13 18 5
0 9 5 9 11 0 6 -9 8 -21 4 -19 -6 -21 -4 -17 19 3 14 2 26 -3 26 -20 0 -58
-24 -62 -39 -3 -9 -5 -1 -6 16 l-1 33 -40 -21 c-23 -12 -43 -19 -45 -17 -8 7
93 59 107 56 7 -2 65 31 128 73 63 42 134 88 157 103 27 16 40 31 37 40 -7 18
102 78 127 71 10 -4 35 5 57 19 54 34 113 58 129 52 7 -3 13 -2 13 3 0 9 113
61 135 61 8 0 15 5 15 10 0 6 6 10 13 9 6 -1 31 6 54 16 33 14 40 21 32 31
-12 15 -8 17 54 34 43 12 77 39 77 63 0 5 -10 7 -23 3 -20 -5 -23 -1 -25 24
-2 23 4 32 27 45 32 16 33 28 13 130 -8 38 -7 52 2 57 8 5 13 37 14 97 l1 90
-34 -4 c-19 -3 -35 -2 -35 1 0 11 25 29 45 32 11 2 20 5 21 5 1 1 4 33 7 71 6
65 5 68 -13 62 -48 -15 -62 -15 -27 0 35 16 42 28 40 73 -1 10 2 10 10 2 7 -7
10 -47 9 -112 -2 -69 0 -99 7 -94 6 3 11 1 11 -4 0 -6 -6 -11 -12 -11 -7 0 -5
-5 5 -11 19 -11 23 -45 6 -51 -7 -2 -10 -10 -8 -16 3 -9 16 -3 38 17 18 16 39
27 46 25 18 -7 7 -44 -13 -44 -12 0 -13 -3 -4 -12 14 -14 16 -32 3 -24 -5 3
-11 -1 -15 -9 -3 -8 -12 -15 -19 -15 -8 0 -22 -10 -33 -21 -19 -22 -19 -22 6
-15 14 4 33 10 44 13 10 3 23 -1 28 -8 8 -11 9 -10 4 4 -3 9 -1 17 4 17 5 0 7
13 4 30 -7 35 13 70 27 48 6 -8 9 -9 9 -2 0 7 12 19 26 29 15 9 23 12 20 6 -4
-6 0 -11 8 -11 9 0 16 6 16 14 0 8 10 14 25 14 13 0 22 -4 19 -9 -3 -5 2 -9
10 -9 8 0 17 -8 19 -17 3 -10 5 7 6 38 1 43 5 58 17 63 9 4 14 9 11 13 -4 3
-13 0 -21 -6 -8 -7 -20 -10 -26 -6 -5 3 -10 2 -10 -3 0 -5 -9 -12 -21 -15 -20
-5 -20 -4 -4 12 14 17 14 19 0 24 -21 9 -19 24 5 30 15 4 20 0 20 -14 0 -24
13 -24 31 -2 10 11 10 14 2 9 -8 -4 -13 -2 -13 8 0 8 12 19 28 24 25 10 24 11
-18 12 -25 1 -39 4 -32 7 6 2 12 9 12 14 0 6 -4 7 -10 4 -6 -3 -7 1 -4 9 9 23
24 20 24 -4 0 -21 33 -29 45 -10 3 6 14 10 23 10 15 0 15 -2 2 -10 -10 -6 -11
-10 -3 -10 7 0 12 -8 11 -17 -3 -37 3 -51 22 -56 10 -3 20 -2 22 2 2 3 20 14
40 23 37 17 57 11 42 -14 -4 -7 -3 -8 4 -4 7 4 12 13 12 21 0 8 7 11 20 8 15
-4 19 -2 14 10 -5 13 0 15 30 10 25 -4 36 -2 36 7 0 7 -7 10 -14 7 -10 -4 -13
-1 -10 8 4 8 -8 17 -33 26 -29 9 -34 13 -20 18 10 4 18 11 18 16 -1 6 5 10 12
10 6 0 12 -10 11 -22 -1 -26 35 -40 38 -15 6 68 5 72 -16 72 -12 0 -32 -7 -44
-16 -31 -21 -49 -7 -21 17 l22 19 -23 0 c-19 0 -21 3 -12 12 10 10 18 8 41 -5
33 -20 76 -23 65 -5 -4 6 -3 8 3 5 6 -4 27 0 48 9 20 8 45 12 56 9 26 -9 49 6
23 16 -19 7 -19 7 1 13 11 4 33 14 48 22 21 10 28 11 25 2 -3 -7 -15 -19 -29
-26 l-24 -13 25 3 c14 2 27 6 30 10 3 3 14 8 25 10 20 3 35 16 35 31 0 4 -9 3
-20 -3 -11 -6 -20 -7 -20 -2 0 6 -9 12 -20 15 -11 3 -20 2 -20 -2 0 -4 -12
-13 -26 -20 -25 -11 -26 -11 -20 14 4 17 2 25 -6 26 -10 0 -10 2 0 6 17 7 15
33 -3 33 -10 0 -15 9 -14 28 0 24 1 25 9 7 8 -19 9 -19 9 2 1 12 -5 24 -11 27
-7 3 -2 3 11 0 16 -4 21 -3 17 5 -4 7 1 11 13 11 12 0 21 5 21 12 0 21 8 3 13
-29z m-532 6 c25 -18 29 -27 29 -71 0 -48 1 -50 23 -43 12 4 32 8 45 9 12 0
22 6 22 13 0 15 19 27 28 18 3 -3 1 -10 -7 -14 -9 -6 -7 -10 8 -14 12 -3 19
-1 15 4 -3 5 -3 9 0 9 2 0 12 3 21 6 13 5 15 0 14 -32 -3 -44 -14 -64 -38 -64
-9 0 -38 -12 -66 -25 -27 -14 -55 -25 -60 -25 -6 0 -9 19 -7 45 l4 46 -33 -14
c-27 -11 -33 -19 -31 -39 2 -22 -1 -25 -23 -20 -29 5 -33 17 -9 26 15 6 15 9
-5 29 -11 13 -21 31 -21 41 0 9 -7 31 -16 47 -20 40 -13 56 30 65 20 3 36 10
36 15 0 14 9 11 41 -12z m-205 -103 c27 -33 41 -72 23 -60 -14 8 -10 -29 5
-48 7 -10 23 -18 34 -18 26 0 40 -20 15 -21 -10 0 -26 -2 -35 -4 -11 -2 -15 2
-11 11 6 17 -20 19 -50 2 -12 -6 -33 -12 -47 -14 -20 -2 -25 1 -26 21 -1 14 2
22 8 19 5 -3 -2 12 -16 35 -14 22 -26 45 -26 49 0 5 18 17 40 27 22 10 40 22
40 27 0 18 20 6 46 -26z m-227 -92 c21 -27 30 -80 11 -69 -5 3 -10 1 -10 -4 0
-6 4 -11 9 -11 5 0 11 -9 14 -19 6 -26 -49 -57 -86 -47 -21 5 -27 12 -27 35 0
15 -9 40 -21 55 l-21 26 46 21 c25 11 46 24 46 29 0 18 18 10 39 -16z m-514
-594 c8 0 20 9 28 20 14 20 14 20 31 1 14 -16 17 -38 15 -147 -2 -132 -11
-202 -22 -174 -13 35 -15 65 -6 76 7 8 7 14 -1 19 -5 3 -10 0 -11 -7 0 -7 -4
-4 -9 7 -8 18 -9 18 -9 -6 -1 -14 -4 -29 -8 -32 -4 -4 -8 -26 -10 -50 -3 -23
-10 -54 -18 -70 -7 -15 -17 -52 -21 -83 -3 -31 -10 -51 -14 -44 -5 9 -11 7
-21 -6 -8 -11 -21 -20 -29 -22 -22 -5 -40 -22 -40 -39 0 -8 -4 -12 -9 -9 -4 3
-42 -12 -84 -34 -52 -27 -77 -36 -80 -27 -3 7 -6 4 -6 -6 -1 -15 -3 -15 -15
-5 -18 17 -2 65 25 73 10 4 19 15 19 26 0 10 7 19 15 19 8 0 15 5 15 11 0 6
-8 8 -18 5 -16 -5 -19 0 -20 30 -2 38 14 78 27 70 4 -3 8 1 8 8 0 8 -6 12 -13
9 -15 -5 -28 13 -15 21 5 3 7 15 4 25 -3 13 2 23 16 30 27 15 27 35 1 28 -11
-3 -20 -1 -20 4 0 5 7 9 15 9 8 0 24 6 35 13 27 16 39 -3 36 -55 -2 -21 0 -41
4 -43 9 -6 30 49 30 79 0 16 3 18 9 7 5 -8 11 -9 15 -3 3 5 -2 13 -11 17 -15
5 -12 10 15 27 18 11 31 23 28 26 -3 3 -12 -1 -21 -8 -17 -14 -75 -24 -75 -12
1 4 8 18 16 32 8 14 13 17 10 8 -3 -12 -1 -15 10 -11 7 3 14 10 14 17 0 6 5 4
10 -4 8 -12 13 -11 39 8 39 28 41 28 41 -8 0 -19 -5 -30 -14 -30 -13 0 -26
-20 -26 -41 0 -17 17 -9 28 14 7 14 11 16 11 7 1 -13 2 -13 11 0 8 13 10 13
10 -2 0 -9 -6 -19 -12 -22 -7 -3 -2 -3 10 0 21 5 23 3 18 -18 -5 -17 -4 -19 3
-8 5 9 11 22 13 30 2 8 10 21 18 28 8 8 9 11 3 7 -8 -3 -13 0 -13 8 0 18 24
29 47 20 10 -4 14 -2 9 5 -3 6 -2 13 2 16 5 3 9 34 10 68 1 47 -1 57 -8 41 -5
-13 -17 -23 -25 -23 -9 0 -13 -4 -10 -10 3 -5 -1 -10 -9 -10 -11 0 -15 8 -14
25 1 14 7 25 12 25 6 0 5 5 -2 12 -8 8 -15 8 -25 -1 -12 -9 -13 -5 -6 31 4 24
9 50 10 58 1 8 4 0 6 -17 3 -20 10 -33 18 -33z m2329 -342 c3 -13 6 -35 6 -50
0 -30 -4 -31 -77 -31 -18 1 -33 -3 -33 -8 0 -5 -10 -24 -22 -43 -21 -32 -23
-33 -45 -18 -13 8 -26 12 -30 8 -3 -3 -1 -6 7 -6 10 0 10 -3 0 -15 -6 -8 -9
-18 -6 -23 7 -11 -22 -38 -31 -29 -3 4 2 9 11 13 15 6 15 9 -5 30 -12 13 -26
21 -30 18 -4 -2 -13 5 -19 16 -9 16 -15 18 -30 10 -27 -14 -30 -13 -29 13 0
12 3 16 6 10 2 -7 11 -13 19 -13 9 0 12 5 8 12 -5 8 -2 9 9 5 10 -4 17 -2 17
5 0 7 4 7 13 0 18 -14 51 2 57 29 4 14 15 26 30 29 l25 6 -27 7 c-42 11 -33
25 20 32 26 3 54 8 62 9 8 2 31 4 51 5 30 1 38 -3 43 -21z m-3253 -167 c8 -21
18 -31 37 -33 14 -2 28 -9 30 -17 3 -9 0 -11 -7 -7 -25 16 -39 -12 -30 -59 7
-37 5 -52 -11 -79 -19 -34 -24 -96 -8 -96 4 0 8 -7 8 -15 0 -29 30 -15 37 16
6 30 7 31 20 14 12 -17 13 -14 13 23 0 23 5 42 10 42 6 0 10 -14 10 -31 0 -23
4 -30 14 -26 10 4 15 -4 18 -29 2 -19 0 -34 -4 -34 -4 0 -8 12 -8 26 0 14 -4
23 -9 19 -11 -6 -3 -107 9 -115 10 -8 -15 -143 -28 -148 -7 -2 -12 -9 -12 -15
0 -6 13 1 28 16 15 15 39 27 53 27 15 0 42 17 71 45 26 24 66 57 89 72 23 15
53 36 68 45 41 28 53 3 13 -28 -22 -18 -31 -32 -27 -44 3 -9 1 -29 -4 -42 -7
-18 -6 -29 2 -37 14 -15 -25 -50 -88 -80 -40 -19 -84 -54 -179 -144 -28 -26
-59 -50 -68 -53 -10 -3 -18 -9 -18 -14 0 -5 -40 -50 -90 -99 -49 -49 -90 -96
-90 -104 0 -8 -9 -22 -20 -32 -11 -10 -20 -22 -20 -26 0 -4 -23 -40 -51 -81
-46 -66 -51 -70 -47 -40 3 18 1 35 -4 38 -4 3 -8 12 -8 20 0 8 5 12 10 9 16
-10 12 7 -7 27 -17 20 -10 39 8 21 16 -16 39 -4 39 20 0 16 -3 18 -11 10 -9
-9 -19 -4 -42 18 -24 24 -27 33 -17 42 9 9 14 9 17 1 2 -6 10 -20 18 -30 14
-18 14 -18 15 3 0 12 -4 24 -9 27 -15 10 -51 76 -40 76 5 0 15 -11 21 -25 15
-33 24 -32 22 3 -2 47 -3 51 -25 73 -11 11 -18 27 -15 36 5 12 9 11 24 -8 l19
-22 0 46 c1 26 -3 47 -8 47 -5 0 -15 13 -24 30 -18 34 -19 44 -4 34 6 -3 3 5
-6 20 -11 17 -13 26 -6 26 7 0 10 4 6 9 -3 6 6 6 24 1 l30 -8 -17 33 c-9 19
-26 36 -36 39 -16 4 -17 7 -6 20 18 23 26 20 40 -14 15 -37 32 -40 26 -4 -4
20 -2 24 10 20 12 -5 13 -2 3 17 -6 12 -21 32 -32 44 -11 12 -17 29 -13 38 5
14 9 14 41 1 20 -9 33 -11 30 -6 -3 6 0 10 7 10 7 0 -2 14 -20 30 -26 24 -31
35 -26 56 6 22 11 25 35 20 22 -4 31 -1 39 14 8 15 7 18 -3 14 -8 -3 -20 2
-27 11 -11 14 -10 19 8 38 21 21 22 21 40 2 20 -22 22 -27 22 -51 0 -10 6 -14
15 -10 9 3 15 0 15 -10 0 -10 -6 -14 -14 -11 -8 3 -23 -3 -34 -13 -11 -10 -22
-17 -24 -15 -2 2 -4 -4 -4 -15 0 -10 3 -17 7 -14 19 11 29 -110 11 -128 -7 -7
-12 -19 -12 -27 0 -14 1 -14 10 -1 7 11 10 7 10 -17 0 -17 5 -35 11 -39 7 -4
9 -25 7 -55 -3 -27 -4 -49 -3 -49 2 0 13 17 25 37 24 40 28 59 31 143 1 49 2
51 8 20 4 -19 5 -61 4 -92 -2 -52 0 -58 17 -58 21 0 28 34 10 45 -18 11 -11
35 10 35 11 0 20 5 20 10 0 6 -8 10 -19 10 -14 0 -20 10 -25 38 -14 90 -1 152
20 90 l11 -33 13 53 c16 62 35 84 45 53 8 -27 22 -27 30 0 4 13 12 18 21 15 9
-3 12 -1 9 5 -4 5 -12 8 -18 6 -7 -2 -22 0 -35 4 -17 7 -24 5 -28 -6 -8 -21
-23 -19 -18 3 3 15 9 93 17 212 2 38 -25 95 -49 104 -12 4 -13 10 -4 26 15 29
39 25 51 -9z m3240 -99 c-15 -5 -14 -23 2 -19 6 1 12 -6 12 -16 0 -10 8 -24
18 -32 16 -12 16 -15 -8 -57 -45 -80 -80 -218 -56 -218 6 0 11 20 11 44 0 25
5 48 10 51 6 3 10 14 10 24 0 10 8 29 19 42 10 13 19 27 20 32 0 4 4 7 7 6 4
0 11 5 15 13 6 9 9 9 9 1 0 -6 -7 -18 -15 -27 -19 -18 -19 -30 -1 -23 11 4 10
-6 -5 -48 -10 -30 -19 -68 -19 -84 0 -22 -4 -29 -14 -25 -7 3 -16 -1 -19 -9
-4 -11 0 -13 14 -10 10 3 19 0 19 -6 0 -6 -10 -11 -22 -11 -13 0 -29 -4 -37
-9 -11 -7 -9 -10 7 -15 11 -4 26 -5 33 -4 12 2 14 -52 17 -304 2 -270 0 -308
-13 -308 -8 0 -15 5 -15 10 0 6 -7 10 -16 10 -42 0 -44 15 -44 313 0 241 -2
286 -15 297 -8 7 -15 16 -15 21 0 5 7 9 15 9 13 0 15 26 17 168 2 222 1 212
16 221 8 5 13 11 13 15 -3 23 0 36 8 31 5 -3 13 0 18 7 5 8 9 -6 11 -37 2 -29
-1 -51 -7 -53z m-1324 21 c0 -21 -5 -41 -11 -45 -7 -6 -6 -11 4 -17 8 -6 11
-13 6 -18 -4 -4 -12 0 -17 10 -6 9 -17 17 -25 17 -13 0 -13 -3 0 -22 7 -13 13
-33 11 -45 -2 -26 21 -31 47 -10 19 15 29 65 14 71 -7 3 -6 5 2 5 7 1 14 -5
16 -11 2 -7 8 -28 14 -47 6 -18 9 -31 5 -28 -3 3 -28 -3 -57 -14 -64 -26 -109
-38 -165 -45 -24 -3 -55 -10 -68 -15 -13 -5 -34 -9 -46 -8 l-22 0 23 9 c26 11
27 16 7 54 -18 34 -13 41 33 51 31 6 32 6 32 -29 0 -40 11 -50 46 -42 25 7 25
12 7 79 -4 15 0 18 19 15 18 -2 24 -11 29 -43 3 -22 7 -30 8 -17 0 13 6 20 11
17 6 -3 10 0 10 9 0 8 6 16 12 18 9 3 7 10 -6 23 -21 21 -46 29 -46 14 0 -5
-7 -9 -15 -9 -11 0 -12 6 -6 23 4 12 6 27 4 33 -3 10 85 52 114 53 6 1 11 -14
10 -36z m1194 13 c8 5 10 -1 7 -19 -3 -15 0 -28 6 -31 6 -2 -5 -5 -24 -5 -19
-1 -30 -5 -24 -9 5 -4 11 -25 13 -47 1 -22 5 -42 10 -45 4 -3 8 -14 8 -25 3
-80 15 -481 18 -620 4 -179 5 -196 18 -206 4 -3 8 -14 7 -25 0 -10 -3 -65 -6
-121 l-6 -103 29 0 c68 0 73 6 73 79 0 37 -5 72 -11 78 -15 15 -4 30 29 37
l27 6 0 223 c0 317 4 399 23 420 8 9 20 17 26 17 6 0 4 -5 -4 -10 -11 -7 -3
-9 27 -8 25 1 40 5 36 11 -4 6 -1 7 6 3 8 -6 10 -21 6 -47 -5 -29 -3 -43 10
-55 13 -14 14 -19 3 -25 -11 -7 -10 -11 2 -18 8 -5 18 -7 22 -5 4 3 9 -2 9
-10 2 -19 3 -26 12 -46 7 -18 41 -131 43 -145 1 -5 2 -12 3 -15 1 -3 19 -61
40 -130 32 -106 40 -125 57 -123 10 1 66 7 123 12 95 10 122 9 110 -3 -3 -3
-22 -7 -44 -9 -26 -3 -41 -10 -46 -23 -6 -18 -7 -18 -14 -1 -9 23 -27 22 -43
-3 -15 -24 -38 -26 -59 -5 -8 9 -18 13 -22 9 -3 -4 0 -9 7 -11 26 -10 10 -23
-28 -23 -50 0 -65 -24 -32 -51 12 -9 22 -22 22 -28 0 -17 18 -13 30 7 9 15 10
14 9 -8 -3 -54 -8 -53 129 -45 70 3 152 10 182 15 30 5 109 13 174 16 l119 7
-5 -26 c-3 -15 -1 -27 3 -27 5 0 9 -4 9 -9 0 -5 -35 -12 -77 -16 -43 -3 -116
-10 -163 -16 -47 -6 -137 -13 -200 -15 -63 -3 -126 -7 -140 -9 -102 -17 -189
-26 -275 -31 -96 -5 -160 -11 -160 -14 0 -1 -10 -3 -22 -4 -13 -2 -26 -6 -30
-10 -5 -5 26 -5 67 -1 41 4 95 9 120 11 25 2 64 7 88 10 32 5 42 3 42 -7 0
-11 2 -11 8 -1 5 7 37 15 72 18 35 3 67 7 72 10 4 3 17 0 28 -6 15 -8 20 -8
20 2 0 9 3 9 10 -2 6 -10 10 -11 10 -2 0 6 12 12 26 12 14 0 23 -4 20 -9 -4
-5 3 -7 14 -4 11 3 18 8 16 12 -2 3 9 6 25 7 16 1 29 -3 29 -7 0 -5 14 -9 31
-9 24 0 30 4 25 15 -4 10 1 15 14 15 11 0 19 -6 17 -12 -1 -8 12 -14 33 -16
l35 -4 -30 -13 -30 -13 25 -10 c14 -6 19 -11 13 -11 -7 -1 -13 -12 -13 -25 0
-23 3 -25 47 -21 26 2 49 9 51 15 2 5 8 7 13 4 6 -3 17 0 25 7 11 9 18 8 34
-6 15 -14 20 -15 20 -4 1 10 4 9 11 -3 5 -10 17 -18 25 -18 8 0 13 -4 10 -9
-3 -5 3 -11 14 -14 17 -4 20 -14 20 -55 0 -28 3 -58 6 -66 5 -12 2 -15 -10
-10 -9 3 -13 10 -10 16 3 5 -17 8 -52 6 -35 -2 -59 -8 -62 -15 -2 -7 3 -13 11
-13 21 0 28 -25 12 -47 -11 -14 -17 -16 -32 -7 -10 7 -17 19 -17 28 1 11 -6
16 -25 16 -23 0 -69 -19 -47 -20 4 0 1 -11 -8 -25 -9 -14 -12 -25 -6 -25 6 0
13 7 16 15 10 24 43 38 59 25 10 -9 12 -73 9 -333 -2 -177 -6 -387 -10 -467
-3 -80 -6 -165 -6 -190 0 -25 -5 -51 -11 -57 -6 -9 -6 -13 3 -13 10 0 10 -3 0
-15 -10 -12 -7 -15 14 -21 27 -6 33 -18 16 -29 -22 -14 -10 -35 20 -35 17 0
30 -2 30 -4 0 -2 3 -12 7 -22 5 -14 2 -16 -20 -10 -16 4 -27 2 -27 -4 0 -5 3
-9 8 -9 17 3 32 -2 32 -10 0 -5 -40 -13 -90 -17 -65 -5 -90 -10 -91 -20 -1 -8
-2 -19 -3 -26 0 -6 -7 -13 -15 -16 -8 -3 -11 0 -8 5 3 5 -14 19 -39 30 -24 11
-47 17 -50 12 -5 -9 -44 11 -44 23 0 4 21 8 48 10 l47 3 3 63 c2 50 6 62 20
62 15 1 14 3 -3 16 -19 15 -18 16 13 9 35 -7 40 -1 17 22 -12 12 -19 13 -30 3
-13 -11 -15 14 -17 201 -1 118 -1 227 -2 242 0 17 -4 26 -11 23 -19 -7 -48 63
-34 80 15 18 2 18 -17 0 -18 -18 -19 -70 -1 -61 6 3 2 -2 -10 -11 -17 -12 -20
-21 -14 -33 7 -13 1 -26 -27 -57 -37 -40 -41 -47 -50 -96 -4 -25 -52 -70 -52
-49 0 5 6 12 13 14 7 4 3 8 -10 12 -30 10 -29 23 1 18 13 -3 27 1 31 8 6 9 3
11 -8 6 -11 -4 -14 -2 -11 8 4 8 -3 15 -17 17 -21 3 -23 8 -24 65 0 34 -3 65
-7 69 -5 4 -8 -2 -8 -14 0 -11 -4 -24 -10 -27 -15 -9 -12 23 5 59 12 26 14 45
7 87 -5 30 -13 62 -17 73 -7 15 -5 17 11 12 23 -7 49 8 40 23 -17 26 -116 -5
-116 -36 0 -7 -6 -13 -14 -13 -22 0 -73 -67 -97 -129 -12 -31 -23 -57 -25 -59
-1 -2 -38 19 -83 47 -76 48 -81 50 -81 29 0 -18 17 -32 78 -66 42 -24 88 -52
102 -62 l25 -20 -21 -17 c-20 -17 -21 -28 -23 -223 -1 -135 -5 -206 -12 -211
-8 -5 -8 -8 0 -13 15 -10 14 -26 -3 -26 -17 0 -28 66 -21 133 4 43 3 47 -5 22
-5 -16 -12 -55 -16 -86 -8 -67 -15 -82 -37 -73 -23 8 -22 28 1 20 14 -5 13 -3
-3 9 -11 9 -25 13 -32 11 -8 -3 -13 2 -13 14 0 11 -6 20 -13 20 -22 0 -18 -56
4 -76 23 -20 25 -39 4 -30 -8 3 -15 1 -15 -3 0 -5 -3 -17 -6 -26 -6 -16 3 -17
107 -11 63 4 134 9 159 11 25 3 89 7 143 10 83 5 97 4 97 -10 0 -8 -6 -15 -14
-15 -16 0 -39 -26 -42 -46 -3 -18 10 -18 26 1 21 26 25 17 26 -60 1 -41 0 -75
-3 -75 -2 0 -15 7 -28 16 -24 16 -25 15 -25 -5 0 -14 -6 -21 -20 -21 -11 0
-20 4 -20 8 0 5 -13 7 -30 4 -16 -2 -30 -7 -30 -11 0 -15 -71 -11 -87 5 -16
15 -18 15 -26 -3 -10 -23 -57 -29 -57 -7 0 16 -16 19 -25 4 -16 -26 -25 -3
-25 65 0 41 3 75 7 75 3 0 15 -7 25 -17 17 -15 18 -15 18 4 0 19 -5 21 -67 18
-38 -2 -72 -4 -76 -4 -5 -1 -7 -9 -6 -18 4 -45 -1 -65 -16 -59 -9 3 -15 0 -15
-8 0 -9 8 -12 23 -9 21 4 21 4 2 -8 -11 -7 -24 -17 -28 -23 -4 -6 -7 27 -6 74
2 118 1 120 -18 120 -45 1 -45 3 -50 315 -4 247 -7 302 -20 321 -14 23 -14 24
6 24 21 0 21 2 21 230 0 225 0 230 20 230 28 0 36 27 16 49 -15 17 -14 18 35
20 29 1 55 3 59 6 4 2 49 7 101 10 52 3 101 8 109 10 18 5 290 27 377 30 62 2
98 18 87 37 -3 5 -19 6 -34 3 -29 -6 -89 -14 -165 -20 -22 -2 -40 -4 -40 -6 0
-1 -22 -3 -50 -5 -27 -1 -70 -5 -95 -9 -25 -3 -66 -7 -92 -8 -25 -1 -49 -5
-52 -8 -3 -3 -27 -4 -53 -3 -26 2 -50 1 -55 -2 -4 -3 -58 -7 -120 -10 -74 -3
-116 -9 -123 -18 -5 -7 -19 -18 -30 -24 -13 -7 -15 -12 -6 -12 8 0 23 7 33 16
16 16 18 15 24 -1 9 -23 -9 -50 -31 -48 -12 1 -14 -3 -8 -15 9 -19 11 -915 2
-980 -3 -23 -2 -45 3 -48 4 -3 8 -16 8 -30 0 -14 7 -36 16 -50 14 -20 15 -30
5 -50 -6 -14 -11 -63 -11 -109 l0 -85 -70 0 c-38 0 -71 1 -72 2 -2 2 -18 -7
-35 -20 -28 -20 -42 -23 -92 -19 -60 5 -88 -3 -77 -22 5 -7 -4 -11 -26 -10
-18 1 -25 3 -16 6 27 7 9 33 -24 33 -17 0 -27 -4 -23 -10 3 -5 5 -10 3 -10 -2
-1 -38 -3 -80 -7 -73 -5 -78 -4 -78 15 0 26 19 40 51 38 18 -1 25 3 22 11 -6
15 13 18 22 3 11 -18 24 -1 21 28 -3 27 -10 30 -81 33 -15 1 -21 8 -20 27 0
14 -6 27 -14 30 -9 3 -11 0 -6 -8 4 -7 8 -30 9 -51 1 -33 -2 -38 -24 -42 -14
-3 -27 -2 -30 1 -11 15 -40 12 -40 -3 0 -9 -4 -13 -10 -10 -5 3 -10 -1 -10 -9
0 -9 7 -16 15 -16 8 0 15 5 15 11 0 6 10 9 21 7 17 -2 23 -11 26 -40 l4 -38
-39 0 c-21 0 -54 -7 -72 -16 -45 -23 -50 -11 -50 119 0 104 1 107 23 108 12 1
32 2 44 3 12 0 25 4 29 9 4 4 17 7 29 7 20 0 21 5 22 75 0 41 -4 75 -8 75 -5
0 -9 -9 -9 -19 0 -13 -6 -18 -17 -17 -10 2 -21 -1 -24 -6 -3 -5 -13 -6 -21 -3
-29 11 -30 115 -2 115 8 0 14 5 14 10 0 6 -7 10 -15 10 -12 0 -15 15 -15 76 0
41 5 84 10 94 7 13 7 21 -2 26 -7 4 -8 3 -4 -4 4 -7 2 -12 -3 -12 -6 0 -11 8
-12 18 0 14 -2 14 -8 -3 -5 -11 -4 -30 0 -43 15 -38 11 -109 -7 -127 -11 -10
-13 -19 -6 -28 5 -7 8 -23 7 -37 -2 -14 -4 -28 -4 -32 -2 -13 -44 -48 -58 -48
-8 0 -13 12 -13 31 0 17 4 28 10 24 10 -6 14 6 10 39 -1 11 3 15 9 12 7 -4 8
-1 5 8 -3 9 -10 13 -15 10 -13 -8 -11 10 3 24 9 9 8 12 -5 12 -9 0 -17 6 -17
13 -1 6 -3 29 -6 51 -7 49 4 146 17 146 6 0 8 -4 4 -9 -3 -5 -1 -12 4 -15 9
-6 21 26 21 59 0 28 28 65 44 59 10 -4 12 -14 5 -42 -8 -35 -5 -52 9 -52 4 0
7 18 6 41 -1 43 -3 43 63 24 10 -3 -2 4 -27 15 -25 12 -47 26 -49 31 -2 6 -11
3 -20 -5 -16 -15 -19 -14 -29 9 -6 14 -19 25 -27 25 -13 0 -15 18 -14 125 0
69 5 125 10 125 5 0 9 -8 10 -17 3 -46 5 -53 14 -53 6 -1 13 9 17 22 6 23 6
23 7 -2 0 -14 -7 -38 -17 -55 -19 -32 -29 -125 -14 -125 5 0 12 23 16 50 4 28
9 57 12 65 10 25 24 17 24 -12 0 -22 5 -16 24 30 28 67 52 107 66 107 6 0 10
7 10 15 0 9 13 24 30 33 16 9 30 24 30 31 0 12 -3 12 -12 3 -17 -17 -31 -15
-24 4 15 38 -9 31 -55 -17 l-49 -51 -10 27 c-13 35 -13 42 5 49 9 3 18 -1 21
-9 4 -8 10 -15 15 -15 12 0 6 34 -9 53 -7 7 -15 35 -18 60 -4 26 -11 44 -15
41 -5 -3 -9 -1 -9 4 0 25 91 57 110 38 8 -8 13 -7 19 3 5 8 16 11 24 8 8 -3
19 -1 23 3 8 8 127 30 249 46 17 2 44 6 60 8 17 2 48 5 70 5 38 2 85 24 73 36
-3 3 -43 -2 -89 -11 -46 -9 -95 -17 -109 -19 -14 -2 -25 -5 -25 -6 0 -1 -9 -3
-20 -4 -151 -22 -195 -27 -236 -23 -29 3 -46 1 -42 -5 3 -5 -3 -7 -13 -4 -54
15 -77 17 -87 8 -7 -5 -28 -11 -47 -13 -19 -1 -41 -9 -48 -15 -29 -28 -91 -5
-92 32 0 6 5 3 10 -5 8 -11 10 -6 8 20 -3 29 -6 35 -25 32 -32 -4 -38 16 -7
24 16 4 29 2 34 -5 9 -15 20 19 20 62 0 15 5 27 11 27 5 0 7 5 4 10 -3 6 -1
10 4 10 6 0 11 -4 11 -10 0 -5 5 -10 11 -10 5 0 7 6 3 13 -5 9 -4 9 6 0 10 -9
19 -9 41 2 15 8 43 16 62 17 29 3 33 6 26 19 -4 9 -5 19 -2 23 3 3 1 6 -5 6
-7 0 -12 5 -12 10 0 6 7 10 16 10 8 0 13 -4 10 -9 -3 -5 3 -20 14 -32 16 -20
21 -22 29 -10 7 10 5 18 -5 26 -13 9 -12 13 8 23 13 6 57 18 98 26 41 8 67 15
58 15 -22 1 -401 -57 -448 -69 -19 -5 -62 -12 -95 -16 -33 -4 -76 -13 -95 -21
l-35 -13 31 4 c18 3 43 8 57 11 22 6 28 2 45 -32 11 -21 23 -56 27 -76 6 -29
10 -35 20 -27 18 15 26 -11 10 -34 -13 -17 -14 -17 -25 1 -10 16 -10 16 -5 -4
3 -12 -1 -37 -8 -56 -12 -28 -23 -36 -61 -47 -37 -10 -49 -10 -61 0 -13 11
-14 10 -9 -5 6 -15 3 -17 -14 -13 -12 4 -20 2 -16 -3 5 -9 -27 -14 -71 -11
-11 0 -27 -2 -35 -4 -12 -4 -12 -7 -1 -13 15 -10 -94 -29 -174 -31 -27 0 -63
-2 -80 -3 -23 -2 -30 2 -29 16 1 11 -5 17 -20 17 -20 1 -20 2 -3 14 15 12 15
15 3 26 -8 6 -24 9 -36 5 -18 -6 -20 -3 -15 18 4 14 2 28 -4 32 -14 8 -5 25
14 25 8 0 11 -7 8 -20 -4 -16 0 -20 21 -20 27 0 36 15 14 22 -9 3 -8 9 5 22 9
10 17 21 17 26 0 4 11 11 25 14 14 4 23 11 20 16 -4 6 -11 8 -16 5 -5 -3 -6 1
-3 9 3 9 1 16 -6 16 -6 0 -8 5 -5 10 3 6 15 10 26 10 10 0 19 -4 19 -10 0 -5
9 -10 21 -10 14 0 19 5 16 14 -5 12 16 20 110 41 12 3 34 10 48 15 15 6 39 10
55 10 41 0 65 10 49 21 -15 9 19 25 74 34 41 8 44 12 22 33 -13 12 -16 13 -10
2 6 -12 5 -12 -5 -3 -13 12 -33 11 -172 -13 -165 -28 -158 -28 -160 9 l-1 32
-4 -32 c-6 -48 -28 -41 -30 8 -1 22 -7 47 -13 54 -9 11 -6 17 12 29 36 23 98
31 110 15 8 -11 9 -10 4 4 -4 12 0 17 12 17 9 0 23 4 30 9 11 7 10 9 -3 14
-11 5 -14 3 -9 -6 5 -9 4 -9 -5 -1 -10 9 -10 17 -1 34 13 24 4 43 -10 20 -7
-11 -11 -12 -24 0 -14 11 -16 10 -11 -6 3 -10 -2 -3 -12 16 -9 19 -16 38 -15
43 1 4 -2 7 -7 7 -14 0 -21 -27 -21 -76 0 -28 -4 -43 -10 -39 -5 3 -10 2 -10
-4 0 -5 6 -11 12 -13 7 -3 2 -7 -11 -11 -19 -5 -22 -2 -18 13 3 12 -2 20 -16
24 -19 5 -20 9 -12 138 5 73 8 161 7 195 -1 49 2 64 16 72 15 9 15 12 2 20 -8
6 -11 13 -7 17 3 4 13 1 22 -6 21 -18 24 -12 26 48 2 52 6 59 25 45 5 -5 1 -1
-8 9 -10 9 -18 24 -18 35 0 12 -3 14 -8 6 -4 -7 -18 -11 -30 -10 -44 3 -15 27
34 27 13 0 62 -18 109 -40 47 -22 88 -40 90 -40 3 0 25 -9 50 -21 47 -22 58
-44 27 -53 -10 -4 -19 -12 -20 -19 -1 -6 -4 -35 -8 -62 -5 -40 -3 -54 10 -64
21 -17 22 -106 2 -118 -8 -4 -17 -30 -20 -57 -3 -28 -10 -52 -14 -55 -5 -3
-11 -16 -14 -28 -5 -18 -2 -23 12 -23 11 0 24 8 29 18 10 16 10 16 11 -2 0
-19 1 -19 20 2 12 12 30 22 41 22 11 0 36 7 57 17 20 9 43 15 50 14 7 -1 22 8
32 21 18 22 20 40 19 301 0 231 -2 277 -14 277 -8 0 -19 9 -24 19 -9 16 -6 20
15 25 18 5 24 12 20 22 -3 9 -6 25 -6 36 0 17 -5 19 -30 13 -45 -10 -103 -40
-126 -67 -24 -27 -41 -80 -50 -160 -4 -35 -12 -59 -21 -62 -8 -3 -11 -2 -8 3
3 5 -30 26 -72 46 -116 55 -117 55 -136 70 -16 12 -17 18 -7 56 20 75 59 142
78 134 14 -5 13 -3 -2 14 -16 18 -17 21 -1 45 9 14 14 31 10 38 -4 7 2 3 13
-9 l20 -22 18 20 c26 29 88 59 121 59 16 0 45 -8 66 -19 20 -10 34 -15 31 -10
-3 5 -1 9 3 9 14 0 83 -87 83 -104 0 -32 19 -25 26 10 9 47 21 27 26 -41 3
-47 11 -64 32 -65 5 0 4 6 -2 13 -8 9 -24 99 -27 152 0 6 -4 15 -7 21 -9 13
20 56 32 49 5 -3 11 -1 14 3 8 13 -33 9 -42 -4 -10 -16 -41 -13 -35 3 3 7 9
10 14 7 12 -7 -2 29 -15 38 -7 5 -4 8 7 8 20 0 23 16 5 24 -7 3 -2 4 12 3 14
-1 32 6 41 17 14 18 15 16 12 -27 -2 -25 0 -48 5 -51 5 -3 6 -26 2 -51 -5 -33
-3 -48 7 -57 11 -9 13 -8 11 2 -2 7 3 15 11 18 8 3 11 0 7 -7 -4 -6 0 -18 9
-27 12 -12 13 -19 4 -30 -6 -8 -9 -21 -5 -29 4 -12 0 -14 -18 -9 -19 5 -24 1
-28 -21 -4 -20 -2 -25 9 -21 8 3 24 4 36 1 24 -7 24 -4 27 -490 1 -274 -3
-344 -20 -356 -11 -7 -8 -8 10 -4 14 3 36 7 50 7 28 2 40 14 40 42 0 11 6 27
14 35 27 30 29 65 5 86 -12 11 -19 14 -15 8 4 -7 2 -13 -3 -13 -6 0 -11 7 -11
15 0 8 5 15 10 15 18 0 11 20 -15 42 l-25 22 0 238 c0 161 3 238 11 238 5 0 7
5 4 10 -12 19 8 10 27 -12 l19 -22 6 22 c6 25 13 27 33 10 12 -11 12 -10 3 2
-14 20 -23 60 -14 60 5 0 27 -14 50 -31 24 -17 45 -29 47 -26 2 2 -23 23 -56
46 -44 31 -69 42 -93 41 -47 -3 -57 -1 -57 10 0 6 13 10 29 10 24 0 31 6 40
31 6 18 11 40 11 50 0 11 6 19 13 19 17 0 56 -29 40 -30 -6 0 -15 5 -19 11 -4
8 -9 7 -15 -2 -12 -20 -11 -31 3 -23 7 5 9 2 6 -8 -6 -14 39 -58 59 -58 5 0
15 -9 23 -20 8 -11 23 -20 33 -20 23 0 127 -71 127 -87 0 -6 -10 -19 -22 -28
-21 -14 -23 -24 -24 -108 -1 -77 2 -95 18 -110 27 -27 22 -107 -7 -107 -7 0
-15 -16 -18 -37 -3 -21 -8 -48 -12 -60 -6 -18 -3 -23 10 -23 9 0 19 9 22 20 3
11 9 18 13 15 4 -3 29 -2 54 1 42 6 45 9 40 30 -5 18 -2 24 11 24 12 0 15 -5
10 -21 -7 -21 -5 -22 36 -16 24 3 45 11 47 17 3 9 6 9 11 1 5 -8 22 -8 61 -1
29 6 55 11 56 13 1 1 4 135 6 298 3 285 2 298 -17 319 -19 21 -19 23 -2 35 18
13 23 61 8 84 -14 22 -98 18 -146 -6 -62 -33 -145 -104 -165 -143 -10 -20 -21
-53 -25 -73 -9 -44 -19 -47 -39 -9 -8 16 -23 35 -32 43 -14 11 -16 11 -10 0 7
-10 3 -12 -13 -6 -12 4 -21 2 -21 -4 0 -6 -4 -11 -10 -11 -5 0 -10 9 -10 20 0
11 -4 20 -9 20 -5 0 -11 7 -15 15 -5 13 -2 14 17 5 16 -8 14 -4 -8 14 -16 14
-24 26 -17 26 6 0 11 3 10 8 -1 4 3 16 9 27 6 11 9 41 8 67 -3 42 0 50 32 83
36 37 39 62 3 30 -11 -10 -20 -16 -20 -14 0 3 17 21 37 40 20 18 31 26 24 16
-23 -30 -6 -29 45 3 35 21 68 32 114 37 63 7 64 8 25 14 l-40 6 38 2 c44 1 53
-1 49 -13 -2 -5 5 -3 14 5 15 12 16 12 10 -9 -6 -17 -3 -22 9 -22 9 0 14 4 10
9 -12 21 16 20 52 -1 27 -16 34 -18 25 -6 -7 9 -32 27 -55 39 -60 31 -184 31
-245 -1 -24 -12 -45 -20 -48 -18 -2 3 22 17 55 32 116 52 245 26 325 -66 48
-55 86 -140 86 -194 0 -19 5 -34 10 -34 32 0 -16 155 -67 218 -20 24 -54 55
-77 70 -22 15 -42 30 -44 33 -2 4 -12 5 -22 2 -11 -3 -20 0 -20 6 0 11 4 12
53 15 16 1 32 7 35 14 4 6 22 9 40 7 18 -2 32 0 32 5 0 5 7 7 15 4 8 -4 15 -1
15 6 0 9 7 7 20 -5 20 -18 21 -18 52 13 24 23 35 28 44 21 7 -6 18 -7 25 -3z
m-1616 -835 c17 6 17 8 3 8 -10 1 -18 6 -18 11 0 12 10 13 29 1 11 -7 12 -17
2 -56 -11 -44 -10 -48 11 -67 19 -16 20 -21 8 -28 -12 -7 -12 -12 -2 -22 17
-17 15 -27 -5 -22 -10 3 -27 -2 -38 -11 -12 -10 -14 -15 -5 -12 8 2 23 1 32
-2 16 -6 16 -9 4 -33 -9 -17 -11 -30 -5 -34 5 -3 7 -10 4 -15 -4 -5 0 -9 8 -9
16 0 19 -32 3 -42 -8 -5 -7 -8 2 -8 8 0 12 -18 12 -56 0 -34 -4 -53 -10 -49
-5 3 -10 -1 -10 -9 0 -9 -6 -16 -14 -16 -24 0 -30 -21 -7 -27 11 -3 18 -10 15
-15 -3 -5 2 -16 12 -23 18 -13 18 -14 -1 -9 -22 6 -21 11 -28 -115 -2 -43 -3
-44 -47 -55 -25 -6 -63 -11 -85 -11 -38 0 -40 1 -37 30 4 32 27 63 39 51 4 -4
1 -11 -7 -16 -8 -5 -11 -12 -8 -15 13 -13 25 5 32 46 5 30 3 45 -6 51 -10 8
-10 11 0 15 6 2 12 8 12 13 0 5 5 21 11 37 7 17 10 95 9 201 -1 115 2 172 9
172 6 0 11 5 11 11 0 5 -4 7 -10 4 -5 -3 -10 3 -10 15 0 18 3 19 20 10 19 -10
20 -7 22 37 6 141 10 161 17 102 5 -41 8 -45 26 -38z m-681 -23 c14 -24 31
-65 38 -92 13 -47 12 -48 -15 -70 l-28 -22 21 -19 c11 -10 20 -25 20 -33 0
-32 -24 -92 -36 -92 -13 0 -210 53 -242 65 -8 3 -10 10 -5 17 8 14 9 19 11 56
1 15 10 26 24 30 18 4 19 6 5 11 -15 6 -14 12 12 66 35 76 89 125 136 125 30
0 37 -6 59 -42z m-441 -196 c22 -24 47 -97 47 -135 0 -17 -8 -35 -17 -42 -17
-13 -17 -14 -1 -32 17 -18 28 -106 16 -119 -4 -3 -28 1 -55 10 -26 8 -70 21
-96 27 l-48 12 7 46 c4 25 7 53 7 61 -1 8 5 37 13 64 29 103 87 152 127 108z
m297 -137 c106 -28 166 -48 176 -58 4 -4 2 -13 -5 -21 -7 -8 -13 -48 -14 -90
-2 -64 1 -76 16 -80 25 -6 27 -84 1 -99 -8 -4 -14 -14 -14 -21 0 -14 -96 -66
-121 -66 -8 0 -33 30 -54 67 -63 107 -87 180 -91 273 -4 85 -12 113 -32 105
-12 -4 -13 -3 -2 10 7 8 20 13 29 11 9 -3 59 -17 111 -31z m-356 -200 c116
-22 109 -11 107 -171 -1 -125 -3 -141 -21 -156 -11 -9 -20 -21 -20 -27 0 -6
-5 -11 -11 -11 -5 0 -9 -10 -7 -21 2 -15 -4 -24 -20 -30 -19 -7 -28 -4 -47 17
-13 14 -26 40 -28 57 -4 29 -5 30 -12 10 -6 -18 -10 -20 -24 -11 -15 9 -18 31
-19 166 -1 85 -4 157 -6 160 -5 5 16 31 26 32 3 0 40 -7 82 -15z m8489 -135
c3 -11 1 -20 -4 -20 -5 0 -9 -4 -9 -10 0 -5 9 -10 21 -10 15 0 19 -5 15 -15
-3 -8 -1 -15 4 -15 6 0 9 -18 8 -40 -1 -21 5 -46 12 -55 9 -11 9 -15 1 -15 -7
0 -10 -4 -7 -9 3 -5 15 -7 27 -4 14 4 17 9 10 16 -16 16 -13 37 4 37 8 0 19
-17 26 -40 7 -22 16 -40 21 -40 5 0 6 10 3 21 -5 13 -3 19 3 15 6 -4 7 6 2 29
-4 19 -4 37 0 40 13 8 20 -65 20 -224 0 -85 3 -151 7 -148 3 4 6 72 5 151 l-1
145 37 23 c52 31 57 39 60 77 2 19 5 37 8 40 9 9 22 -21 17 -40 -3 -11 0 -19
8 -19 7 0 10 -3 6 -6 -7 -7 12 -64 22 -64 11 0 11 41 1 61 -11 19 -3 49 12 49
5 0 6 -9 3 -21 -4 -13 -1 -25 9 -32 9 -7 17 -22 19 -34 5 -35 17 -40 18 -7 0
16 3 23 6 17 7 -19 21 -16 28 7 3 11 10 20 15 20 14 0 19 -42 8 -64 -8 -15 -8
-21 2 -24 10 -4 9 -6 -1 -13 -19 -11 -4 -22 20 -14 18 5 21 15 21 56 0 71 19
60 22 -13 2 -44 7 -62 16 -60 6 1 12 -2 12 -8 0 -5 7 -10 16 -10 12 0 15 -6
10 -25 -4 -14 -2 -25 3 -25 5 0 7 -10 4 -22 -4 -16 -3 -20 5 -13 6 6 12 34 13
63 2 48 4 52 23 46 19 -5 19 -5 5 7 -18 15 -31 67 -19 74 10 6 50 -78 50 -106
0 -13 5 -31 11 -39 8 -12 10 -8 6 15 -3 17 -1 39 3 50 8 19 9 19 9 -3 1 -12 6
-21 13 -20 8 2 11 -19 10 -72 -1 -41 2 -93 7 -115 6 -32 8 -19 9 64 1 57 4
106 7 109 3 3 5 -12 5 -34 0 -28 3 -35 10 -24 10 16 60 24 60 9 0 -5 -4 -9
-10 -9 -5 0 -6 -7 -3 -17 4 -11 3 -14 -5 -9 -7 4 -12 2 -12 -3 0 -6 7 -11 15
-11 17 0 20 -27 4 -32 -6 -2 -13 -16 -14 -30 -2 -15 -6 -32 -10 -37 -3 -6 2
-11 12 -11 13 0 15 -3 5 -8 -15 -10 -5 -42 13 -42 8 0 15 12 17 28 2 20 8 26
21 24 15 -3 18 3 16 25 -1 15 -1 42 0 58 2 42 21 12 21 -34 0 -19 3 -32 6 -28
3 3 6 22 6 41 0 40 17 61 19 24 1 -13 1 -95 1 -183 1 -91 4 -147 8 -130 4 17
8 63 9 104 1 70 7 88 15 45 17 -89 18 -106 6 -99 -8 5 -11 -2 -9 -26 4 -45 17
-63 35 -48 8 6 11 15 8 20 -3 5 -1 9 5 9 6 0 7 -15 4 -35 -3 -19 -2 -42 3 -52
5 -13 9 -2 14 37 4 30 3 57 -2 61 -4 3 1 23 13 45 l20 39 -2 -62 c-1 -35 1
-66 4 -70 4 -3 7 -20 7 -36 0 -17 3 -27 6 -24 4 4 7 35 7 69 0 35 2 51 4 35 3
-15 9 -25 14 -22 5 4 9 -8 9 -24 0 -22 5 -31 16 -31 10 0 14 -6 11 -15 -4 -8
-3 -16 2 -19 4 -3 6 -29 5 -58 -3 -70 4 -91 24 -84 14 5 14 4 -1 -8 -12 -9
-14 -16 -8 -21 6 -3 11 -24 11 -46 0 -24 4 -38 10 -34 6 3 10 -1 10 -9 0 -9
-4 -16 -10 -16 -15 0 -12 -86 3 -99 8 -6 16 -9 18 -7 2 2 5 -17 7 -42 1 -26 5
-60 8 -76 5 -21 3 -27 -7 -21 -9 6 -11 -3 -6 -40 4 -26 7 -83 7 -127 0 -57 3
-77 12 -72 8 5 9 -2 3 -27 -12 -57 -21 -190 -12 -196 4 -2 3 -11 -4 -19 -6 -8
-9 -14 -7 -14 3 0 2 -19 -2 -42 -5 -24 -6 -46 -4 -49 2 -4 5 -72 7 -152 3
-118 1 -143 -9 -130 -10 14 -15 15 -27 5 -13 -11 -17 -9 -23 10 -4 13 -8 34
-9 48 -2 35 -13 51 -33 48 -20 -3 -41 -38 -33 -53 5 -9 8 -32 12 -82 0 -10 -3
-41 -8 -70 -10 -50 -9 -52 16 -58 14 -4 29 -12 33 -18 12 -20 17 -3 21 67 3
53 8 71 22 79 17 9 17 6 11 -29 -4 -22 -10 -57 -13 -79 -6 -43 -43 -103 -43
-71 0 16 -1 16 -16 2 -22 -23 -27 -20 -20 12 5 23 5 25 -7 11 -8 -10 -12 -40
-10 -75 4 -133 1 -154 -17 -124 -7 11 -10 2 -11 -30 -1 -25 -4 -36 -6 -25 -3
11 -9 25 -14 31 -5 6 -7 18 -4 26 4 9 -1 22 -9 31 -9 9 -16 23 -16 31 0 10 -9
16 -23 16 -31 0 -45 -53 -42 -163 2 -82 1 -87 -16 -82 -20 7 -26 -9 -9 -20 18
-11 10 -35 -12 -35 -21 0 -21 0 -2 15 17 13 17 14 2 15 -10 0 -18 8 -19 18 0
9 -1 53 -2 97 -2 75 -18 130 -49 172 -12 16 -36 6 -50 -21 -13 -23 -38 -177
-31 -188 2 -5 20 -8 39 -8 38 0 35 7 39 -110 1 -30 -3 -66 -9 -80 -10 -23 -12
-21 -23 25 l-11 50 -2 -40 -2 -40 -9 49 c-4 28 -6 53 -3 57 2 4 0 10 -5 13 -4
3 -7 19 -5 36 2 16 -1 30 -6 30 -9 0 -17 -178 -12 -267 1 -27 -2 -33 -18 -33
-11 0 -20 5 -20 10 0 6 -11 10 -25 10 -14 0 -25 5 -25 11 0 5 6 7 13 3 10 -6
10 -4 0 7 -18 18 -16 27 4 25 10 0 19 9 23 24 7 29 1 70 -10 70 -5 0 -6 -8 -3
-19 3 -11 -2 -21 -11 -24 -22 -9 -28 7 -15 39 7 19 7 30 0 32 -5 2 -8 9 -5 17
3 8 12 11 20 8 8 -3 14 0 14 6 0 6 -8 11 -17 11 -15 0 -16 2 -3 10 13 9 13 11
0 21 -11 7 -12 12 -3 15 7 3 10 11 7 17 -2 7 -6 59 -7 115 -2 57 -8 107 -13
110 -5 4 -10 30 -12 58 -3 38 1 55 14 68 16 17 16 20 1 44 -13 22 -23 27 -54
27 l-38 0 3 -72 c4 -68 2 -75 -27 -111 -27 -34 -45 -91 -53 -170 -2 -19 -23
-7 -22 12 1 11 -8 19 -28 23 -23 5 -28 10 -25 25 7 27 -22 61 -40 47 -7 -6
-10 -15 -7 -20 3 -5 1 -9 -4 -9 -5 0 -12 12 -14 28 -3 15 -9 36 -13 46 -8 18
-5 18 26 -4 19 -13 31 -20 27 -15 -4 4 -3 14 3 21 7 9 4 18 -13 34 -18 16 -20
23 -9 29 9 6 10 11 2 15 -6 4 -15 4 -21 1 -5 -3 -10 -2 -10 4 0 6 -6 8 -13 5
-10 -4 -12 3 -9 26 3 24 1 29 -11 24 -8 -3 -17 -18 -19 -34 -5 -35 12 -61 33
-50 11 7 15 3 16 -13 0 -12 -1 -16 -4 -9 -3 6 -9 9 -14 6 -6 -3 -18 1 -27 9
-9 8 -28 17 -42 19 l-25 4 28 12 c16 7 27 19 26 29 0 11 -3 13 -6 6 -9 -23
-25 -14 -18 10 6 20 5 21 -8 5 -8 -10 -17 -15 -21 -11 -4 4 -4 0 -1 -9 4 -9 2
-19 -4 -23 -12 -7 -13 45 -2 85 7 25 7 25 13 3 8 -30 27 -30 30 0 1 12 2 29 3
37 0 8 4 21 8 28 5 6 5 17 2 22 -3 6 2 10 13 10 17 0 18 4 10 43 -6 23 -16 55
-24 70 -12 25 -11 30 7 48 11 11 18 27 15 34 -3 8 0 16 7 19 7 2 2 5 -11 5
-19 1 -22 -3 -17 -18 3 -11 2 -22 -3 -24 -4 -3 -7 6 -7 21 1 15 -4 34 -9 42
-9 13 -9 13 6 2 9 -8 27 -10 42 -6 20 5 26 2 26 -9 0 -9 4 -18 8 -21 8 -5 11
8 15 64 2 30 23 38 39 15 4 -6 8 -2 8 9 0 10 -15 33 -33 51 -19 19 -40 44 -49
56 -8 13 -33 27 -58 33 -47 12 -47 11 -52 111 -3 64 -13 81 -37 62 -12 -10
-13 -9 -2 11 7 13 19 26 27 29 11 4 14 33 13 152 -1 80 -4 160 -8 176 l-7 30
-12 -34 c-10 -29 -10 -36 5 -46 12 -9 13 -14 4 -19 -12 -8 -35 -55 -33 -68 3
-12 2 -213 -1 -250 -1 -26 2 -38 10 -38 7 0 13 -2 13 -5 0 -11 -33 -70 -49
-89 -12 -14 -13 -20 -3 -23 6 -3 12 -12 12 -22 0 -9 6 -23 13 -29 6 -7 13 -32
13 -55 1 -23 6 -57 12 -74 l11 -33 -44 0 c-31 0 -43 4 -41 13 1 6 1 9 -1 5 -8
-13 -50 -9 -63 6 -6 8 -10 23 -9 33 2 10 -2 28 -9 40 -7 12 -9 28 -6 36 3 8
-10 27 -30 45 -20 17 -36 38 -36 47 0 14 -6 17 -27 14 -5 -1 -7 -5 -5 -10 1
-5 -2 -9 -8 -9 -9 0 -11 24 -10 114 1 30 -17 59 -30 51 -4 -3 -10 2 -14 10 -3
8 -12 12 -20 9 -14 -5 -62 33 -53 42 2 2 25 -7 50 -22 26 -14 47 -21 47 -16 0
6 8 13 18 15 12 3 10 5 -8 7 -14 1 -28 2 -32 1 -14 -2 -106 49 -111 62 -6 14
-9 -6 -11 -78 -1 -49 -2 -50 -34 -53 -36 -4 -34 -22 3 -22 29 0 36 -19 29 -74
-5 -30 -1 -54 11 -79 16 -34 16 -38 -1 -66 -10 -16 -23 -27 -31 -24 -7 3 -11
9 -8 13 3 5 -11 6 -31 4 -49 -6 -74 3 -74 27 0 11 5 17 10 14 6 -3 10 -4 10 0
0 3 -10 9 -21 13 -20 8 -20 9 -5 25 10 10 14 22 9 29 -12 20 -9 68 5 68 6 0
12 5 12 11 0 7 -10 9 -27 5 -19 -5 -23 -4 -14 3 23 15 10 142 -18 170 -11 11
-21 24 -22 29 -9 80 -11 170 -4 182 3 4 27 10 55 14 50 7 62 20 38 44 -18 18
-30 14 -23 -7 4 -14 0 -20 -20 -23 -25 -5 -25 -5 -10 18 14 22 14 24 -2 24
-15 0 -15 2 3 15 18 14 17 14 -12 15 -26 0 -30 4 -29 23 2 12 8 21 15 19 6 -1
14 6 17 17 7 28 27 33 120 25 87 -7 95 -13 73 -55 -15 -27 -23 -152 -10 -144
5 3 10 13 10 21 0 8 9 14 20 14 12 0 17 -5 14 -14 -3 -7 1 -20 8 -27 8 -8 20
-30 28 -49 8 -19 18 -38 24 -42 10 -7 13 -23 18 -95 2 -32 7 -43 19 -43 12 0
16 10 15 48 0 26 -5 51 -11 55 -6 6 -5 10 4 14 10 4 10 7 1 13 -21 13 11 52
36 45 13 -3 27 2 35 12 13 15 11 16 -19 10 -28 -6 -33 -4 -30 11 2 12 11 16
29 14 18 -2 29 3 33 14 5 14 1 15 -26 10 -18 -4 -48 -9 -65 -13 -25 -4 -33
-10 -34 -27 0 -17 -3 -15 -16 11 -9 18 -13 36 -8 40 4 5 10 3 12 -4 3 -8 12
-9 28 -3 16 6 27 6 31 -1 4 -8 9 -7 15 2 4 7 24 18 44 24 44 12 50 29 13 33
-28 3 -41 32 -15 32 28 0 47 34 38 66 -17 56 -34 85 -43 72 -6 -10 -8 -8 -8 5
0 9 -6 17 -12 17 -9 0 -9 3 1 9 11 7 7 13 -17 25 -46 24 -85 20 -116 -11 -27
-26 -27 -28 -9 -43 33 -26 53 -64 52 -95 l0 -30 -11 25 c-6 14 -18 39 -25 57
-18 39 -43 51 -50 23 -6 -23 -33 -27 -33 -5 0 8 -9 15 -19 15 -11 0 -22 6 -24
13 -4 8 -8 8 -14 2 -4 -5 -14 -10 -20 -11 -7 -1 -22 -2 -34 -2 -11 -1 -18 -6
-15 -11 3 -5 -2 -11 -12 -13 -15 -4 -21 4 -30 38 -23 86 -113 154 -182 139
-30 -7 -123 -78 -114 -88 3 -2 -1 -16 -7 -31 -19 -41 -4 -41 36 1 l37 38 -35
-50 c-19 -28 -37 -64 -40 -80 -4 -28 -5 -29 -12 -7 -7 21 -9 22 -25 7 -16 -14
-24 -15 -62 -4 -23 7 -46 12 -50 11 -4 -1 -5 4 -2 12 3 7 -2 20 -10 29 -9 9
-16 18 -16 21 0 9 53 7 68 -2 7 -5 25 -7 40 -4 23 3 28 9 29 35 1 18 -1 23 -4
12 -6 -25 -23 -44 -23 -27 0 7 -8 12 -17 10 -14 -3 -17 5 -16 42 2 43 1 43 -6
12 -5 -18 -11 -36 -14 -39 -10 -9 -39 26 -31 38 4 8 3 9 -4 5 -8 -5 -12 0 -12
12 0 15 5 19 23 16 12 -2 15 -1 7 2 -23 10 -29 25 -25 58 5 36 -1 47 -35 64
-14 7 -18 11 -9 8 14 -4 16 2 12 33 -3 22 -1 41 5 45 7 4 4 14 -8 26 -21 21
-27 50 -10 50 6 0 10 4 10 10 0 5 -6 7 -13 4 -11 -4 -12 7 -5 58 5 35 10 72
12 83 10 80 20 115 32 115 10 0 12 8 8 28 -5 25 -3 29 15 27 12 -1 26 -6 32
-12 8 -8 16 -7 30 5 26 23 14 32 -42 32 -27 0 -49 2 -49 4 0 2 -3 12 -6 21 -6
14 0 15 47 10 38 -4 48 -2 34 4 -11 5 -29 10 -41 10 -29 1 -58 25 -52 43 6 13
17 13 97 0 85 -14 91 -17 91 -38 0 -16 -6 -24 -17 -25 -16 -1 -16 -2 -2 -6 11
-2 16 -13 15 -28 -1 -17 -6 -23 -16 -20 -11 3 -16 -2 -16 -16 0 -14 5 -19 18
-16 21 6 23 -4 6 -21 -9 -9 -9 -12 -1 -12 16 0 25 -33 18 -63 -5 -17 -12 -23
-24 -20 -10 3 -21 -2 -23 -9 -6 -14 0 -15 62 -19 30 -2 30 -4 -2 -51 -14 -21
-27 -106 -15 -109 1 0 31 -2 67 -4 l65 -3 -48 11 c-27 7 -45 16 -41 20 4 4 2
7 -5 7 -9 0 -8 4 3 15 8 8 25 15 38 14 22 0 22 -1 3 -10 -17 -8 -17 -9 5 -4
14 2 37 5 53 5 15 0 27 5 27 11 0 6 -9 9 -19 6 -12 -3 -22 1 -26 11 -4 11 -9
12 -16 5 -12 -12 -49 -6 -49 7 0 5 9 12 21 15 11 4 25 20 31 35 7 23 14 27 31
23 12 -3 32 -5 45 -5 18 0 20 -3 11 -14 -6 -8 -18 -14 -26 -14 -12 0 -12 -3 2
-16 20 -21 45 -11 46 18 1 14 5 8 10 -17 5 -22 14 -44 19 -49 6 -6 10 -20 10
-33 0 -13 6 -26 14 -29 8 -3 12 -12 9 -20 -3 -8 0 -20 6 -28 7 -8 11 -30 9
-50 -1 -19 2 -39 6 -43 4 -4 7 -1 5 7 -2 8 3 25 10 38 11 20 10 27 -6 44 -18
21 -18 21 5 9 15 -8 22 -8 22 -1 0 6 -7 13 -15 16 -8 4 -15 18 -15 34 0 39
-11 65 -20 50 -4 -7 -13 -9 -19 -6 -21 13 -11 26 19 26 17 0 30 5 30 11 0 7
-9 9 -21 6 -16 -4 -18 -3 -9 8 7 8 9 23 6 33 -4 11 0 24 9 32 22 18 20 61 -2
54 -14 -4 -13 -1 4 11 18 14 20 21 11 51 -5 19 -8 49 -6 67 3 28 6 32 32 30
26 -2 27 -1 11 11 -17 12 -17 14 3 34 11 11 23 18 26 15 3 -4 6 -1 6 5 0 7 -7
12 -16 12 -14 0 -14 3 -4 15 10 12 10 15 -3 15 -20 0 -41 26 -27 35 5 3 8 19
5 36 -6 30 3 37 23 17 6 -6 29 -11 51 -10 22 1 43 -3 46 -8 19 -31 51 6 60 70
2 14 4 26 4 28 2 8 51 -57 51 -67 0 -21 20 -11 21 12 1 20 2 20 6 2 3 -11 12
-29 19 -40 14 -19 14 -19 14 0 0 17 2 18 11 5 8 -11 12 -12 16 -2 2 6 12 12
21 12 14 0 14 2 3 9 -8 5 -11 16 -6 31 9 27 14 22 26 -27 6 -21 12 -45 14 -53
2 -8 4 -19 4 -23 1 -5 6 -5 12 -1 6 3 9 19 6 34 -3 15 -1 32 6 39 8 8 8 11 -1
11 -7 0 -12 5 -12 11 0 5 4 8 9 5 12 -8 34 21 26 34 -4 6 -1 17 5 25 6 8 9 19
5 25 -3 5 -2 10 3 10 5 0 12 -9 15 -20z m-4607 -144 c-5 -24 -2 -37 9 -46 8
-7 15 -18 15 -24 0 -7 11 -22 24 -35 13 -12 23 -30 22 -39 -2 -28 -27 -92 -35
-92 -7 0 -39 -94 -47 -138 -1 -8 -5 -17 -9 -20 -11 -11 -3 351 9 391 14 46 20
48 12 3z m-2810 -20 c3 -14 12 -27 19 -29 8 -4 12 -21 11 -48 -1 -32 -7 -44
-21 -50 -16 -6 -14 -8 12 -8 23 -1 33 -7 38 -22 4 -13 2 -25 -5 -29 -7 -4 -10
-16 -8 -26 3 -19 -30 -44 -59 -44 -8 0 -12 -4 -8 -9 3 -5 1 -12 -5 -16 -17
-10 -12 -65 6 -65 11 0 14 6 9 20 -4 12 0 26 9 36 15 14 17 14 22 0 3 -9 4
-23 0 -31 -3 -8 1 -20 8 -28 15 -15 12 -83 -6 -104 -6 -7 -6 -13 -1 -13 5 0 9
-17 9 -37 -1 -21 3 -55 7 -76 5 -25 5 -37 -2 -33 -5 3 -11 0 -14 -6 -9 -26
-17 1 -21 73 -5 94 -4 89 -18 89 -6 0 -8 -3 -5 -7 4 -3 2 -12 -4 -19 -6 -8 -9
-21 -5 -29 9 -24 -7 -17 -28 12 -12 16 -22 52 -26 100 -7 74 -15 96 -28 77 -9
-12 -27 -12 -39 0 -5 5 -3 6 5 2 7 -4 12 -1 12 9 0 12 6 15 20 10 11 -3 20 -2
20 4 0 5 14 12 30 16 17 4 28 11 24 16 -3 5 0 9 5 9 6 0 11 7 11 15 0 9 -7 15
-16 13 -23 -4 -51 71 -29 77 8 3 22 7 30 10 21 6 19 32 -6 66 -17 25 -18 29
-4 29 9 0 13 5 10 10 -3 6 -2 10 4 10 5 0 11 -8 13 -17 3 -13 6 -10 10 9 3 15
2 27 -1 26 -3 0 -9 1 -13 2 -8 2 -22 6 -34 9 -15 3 11 21 31 21 18 0 26 -7 31
-24z m-272 -91 c-4 -9 0 -15 10 -15 12 0 16 -9 16 -34 0 -19 6 -37 13 -39 7
-3 5 -6 -5 -6 -20 -1 -22 -9 -8 -31 8 -13 10 -13 10 0 0 12 2 12 13 1 10 -11
10 -14 0 -18 -7 -3 -13 -13 -13 -24 0 -22 0 -22 34 -9 15 5 26 6 26 0 0 -11
-94 -46 -158 -60 -26 -6 -57 -12 -69 -15 -16 -4 -21 -1 -17 9 3 8 1 17 -5 21
-6 3 -11 16 -11 28 0 17 9 25 35 33 39 12 47 7 53 -33 2 -17 -2 -21 -20 -20
-13 0 -26 6 -30 11 -4 6 -11 7 -15 2 -4 -5 -2 -11 5 -13 6 -3 9 -9 6 -14 -7
-12 39 -2 81 18 17 7 23 11 14 9 -10 -3 -19 6 -26 25 -7 18 -8 29 -1 29 23 0
35 27 31 68 -4 40 9 57 21 30 3 -7 3 4 0 25 -4 23 -2 37 5 37 6 0 8 -7 5 -15z
m5072 -14 c-3 -5 4 -9 17 -9 12 -1 33 -3 47 -5 14 -2 33 -5 43 -6 13 -1 17
-10 17 -45 l0 -45 -34 6 c-30 5 -34 2 -44 -25 -7 -20 -17 -30 -28 -29 -11 1
-20 -6 -22 -18 -4 -16 -2 -17 10 -8 11 10 14 8 15 -7 1 -14 -4 -19 -20 -19
-12 1 -62 0 -111 -1 -64 -2 -84 -5 -72 -12 10 -6 29 -8 42 -5 16 3 28 -1 33
-11 7 -12 13 -13 23 -5 17 13 92 2 95 -14 2 -7 -8 -15 -21 -19 -17 -4 -23 -11
-19 -22 4 -9 2 -13 -4 -9 -6 4 -14 0 -17 -9 -4 -12 -2 -15 9 -10 11 4 15 -1
15 -20 0 -14 4 -22 10 -19 6 3 10 -1 10 -10 0 -9 5 -13 10 -10 6 4 10 -5 10
-19 0 -21 -5 -26 -25 -26 -36 0 -40 3 -40 28 1 24 0 24 -32 16 -13 -4 -20 -10
-17 -15 8 -14 -6 -10 -22 5 -11 11 -11 16 -1 20 6 2 -4 2 -23 -1 -19 -3 -43
-10 -52 -15 -14 -7 -18 -5 -19 9 0 12 -2 14 -6 4 -5 -11 -7 -11 -14 0 -7 11
-9 11 -9 -1 0 -14 25 -58 40 -70 4 -3 3 -16 -1 -30 -6 -21 -7 -22 -8 -4 -3 54
-103 165 -188 207 -24 12 -43 25 -43 30 0 4 -4 5 -10 2 -6 -4 -10 6 -11 22
l-1 28 -9 -25 c-6 -18 -8 -8 -6 38 2 34 0 62 -4 62 -12 0 -17 -25 -12 -55 4
-19 2 -26 -6 -21 -6 4 -11 16 -11 28 0 14 -5 18 -15 14 -8 -3 -23 3 -32 13
-10 9 -35 30 -55 45 -21 16 -35 32 -32 37 3 5 2 9 -3 8 -22 -4 -31 3 -26 21 7
25 21 26 40 3 14 -17 14 -17 9 1 -6 18 -5 18 19 2 14 -9 31 -16 38 -15 30 4
43 -3 44 -23 1 -12 -3 -28 -9 -35 -8 -10 -2 -13 31 -13 l42 0 -6 -33 c-5 -24
-2 -37 9 -46 14 -12 16 -8 16 33 0 40 3 46 21 46 12 0 17 4 13 11 -3 6 -15 9
-25 6 -20 -5 -26 7 -9 18 6 4 8 10 6 14 -3 4 1 8 9 8 8 0 20 -13 27 -29 12
-25 18 -28 62 -28 l49 0 -24 23 c-22 21 -25 21 -33 5 -12 -23 -22 -23 -28 0
-9 38 2 52 40 52 52 0 66 -12 59 -47 -3 -16 -2 -35 4 -43 6 -10 9 -11 9 -2 0
6 12 12 28 12 26 0 27 2 27 52 l0 52 98 -3 c64 -2 97 1 97 8 0 6 5 11 11 11 5
0 8 -4 5 -9z m-4112 -17 c9 -3 16 -12 16 -19 0 -7 8 -12 18 -11 12 1 16 -5 14
-22 -2 -13 2 -30 9 -38 7 -9 13 -41 13 -72 1 -51 3 -57 21 -54 20 3 20 2 1
-13 -11 -8 -14 -15 -8 -15 7 0 12 -9 12 -20 0 -11 4 -20 9 -20 5 0 11 -9 14
-20 3 -10 2 -19 -2 -18 -3 0 -13 0 -21 -1 -12 -1 -11 -4 3 -16 13 -9 19 -28
20 -59 2 -44 1 -44 -25 -39 -21 4 -28 2 -28 -11 0 -14 19 -21 44 -17 5 1 6 -8
2 -21 -3 -13 -6 -31 -6 -42 0 -12 -5 -16 -15 -12 -10 4 -15 -1 -15 -14 0 -11
7 -20 15 -20 9 0 15 -10 16 -27 l1 -28 8 25 c4 14 8 -49 8 -147 0 -94 2 -175
5 -180 3 -5 -1 -28 -8 -51 -8 -23 -12 -48 -9 -55 3 -8 -2 -21 -10 -30 -14 -13
-13 -15 5 -20 18 -5 19 -9 9 -27 -8 -16 -9 -20 -1 -16 8 5 10 -28 6 -121 -4
-70 -7 -128 -8 -129 -1 -1 -51 -4 -112 -7 -60 -3 -97 -3 -82 0 26 4 27 7 23
43 -5 41 10 63 25 39 6 -10 9 -7 10 11 3 62 -9 84 -43 76 -11 -2 -18 5 -21 23
-6 30 5 40 39 33 14 -2 24 0 24 7 0 6 -3 10 -7 10 -22 -4 -25 3 -7 17 19 15
19 15 -2 9 -13 -3 -26 1 -34 10 -7 8 -19 15 -26 15 -8 0 -11 6 -8 15 4 8 14
15 24 15 11 0 22 5 26 11 4 8 -4 9 -27 4 -19 -4 -31 -4 -27 0 4 4 1 20 -8 36
-8 16 -12 29 -8 29 3 0 -8 14 -25 32 -17 17 -31 35 -31 39 0 25 22 58 42 62
18 3 16 5 -8 6 -26 1 -31 5 -30 23 1 17 9 24 30 28 17 3 29 8 28 13 -5 19 -1
27 14 27 9 0 14 6 11 13 -4 10 2 13 21 10 15 -2 21 0 13 3 -8 4 -9 9 -3 13 5
3 13 53 15 111 3 58 6 109 6 113 1 5 5 6 10 2 5 -3 12 -2 15 3 6 10 -22 134
-33 145 -4 4 -28 -8 -52 -28 -48 -40 -93 -127 -105 -202 -3 -24 -11 -43 -17
-43 -18 0 -200 51 -224 63 -27 12 -31 47 -6 47 12 0 8 7 -13 25 -16 14 -24 25
-19 25 6 0 3 5 -5 11 -11 8 -8 9 13 4 17 -3 26 -2 23 3 -3 6 4 13 17 16 22 6
22 7 2 21 -11 9 -36 23 -57 33 -24 11 -38 24 -39 37 -1 17 -2 17 -6 3 -2 -10
-9 -18 -14 -18 -14 0 -11 50 4 55 6 3 13 24 14 46 1 34 -2 39 -15 35 -15 -5
-15 -4 1 8 9 7 17 21 17 30 0 9 6 16 13 17 10 0 10 2 0 6 -7 2 -13 9 -13 15 0
6 7 8 15 4 9 -3 15 0 15 9 0 17 44 30 185 55 55 10 124 26 154 35 43 13 101
27 143 34 3 1 13 -2 22 -5z m2554 -57 c-58 -11 -63 -23 -8 -20 22 1 40 -2 40
-8 0 -5 -8 -10 -17 -10 -17 -1 -17 -2 0 -6 21 -5 23 -23 2 -23 -19 0 -19 -16
0 -24 10 -4 13 -14 9 -36 -4 -18 -2 -30 4 -30 5 0 10 16 10 36 0 41 5 49 27
41 9 -4 15 -19 15 -37 0 -34 22 -49 44 -31 10 8 16 9 21 1 11 -17 -6 -32 -31
-27 -13 2 -24 0 -24 -4 0 -5 4 -9 10 -9 5 0 6 -7 3 -17 -4 -11 -3 -14 5 -9 8
5 10 1 5 -10 -5 -13 -3 -16 10 -11 9 3 19 1 23 -5 5 -7 -2 -9 -20 -6 -14 3
-26 2 -26 -3 0 -4 -23 -15 -50 -24 -28 -9 -55 -26 -61 -36 -10 -20 -11 -19
-35 3 -13 13 -36 38 -50 56 -22 28 -24 35 -12 49 7 9 8 14 2 10 -7 -4 -14 2
-18 16 -9 35 -7 67 5 67 7 0 10 -12 7 -30 -3 -18 0 -30 6 -30 7 0 10 15 8 40
-4 35 -1 40 16 40 37 0 51 -12 58 -46 3 -19 10 -34 15 -34 10 0 2 43 -13 73
-5 9 -17 17 -27 17 -15 0 -18 8 -17 45 l0 44 40 3 c62 5 77 -5 24 -15z m-431
-242 c0 -8 -6 -15 -14 -15 -11 0 -11 -4 -1 -20 19 -30 36 -32 30 -4 -3 19 -1
23 12 18 9 -3 14 -10 11 -15 -3 -4 -6 -69 -6 -143 -1 -123 -2 -135 -20 -139
-20 -5 -27 -27 -9 -27 6 0 10 -8 11 -17 1 -12 4 -10 9 7 l8 25 1 -27 c1 -16
-4 -28 -11 -29 -10 0 -10 -2 0 -6 15 -6 16 -33 1 -33 -5 0 -7 5 -3 12 5 7 3 8
-6 3 -10 -6 -10 -10 2 -19 17 -13 20 -46 4 -46 -6 0 -4 -5 4 -10 13 -8 12 -10
-4 -10 -13 0 -17 -5 -13 -20 3 -11 1 -20 -4 -20 -5 0 -7 -11 -3 -25 4 -18 2
-25 -7 -25 -10 0 -14 16 -15 58 0 31 -2 154 -3 271 -2 195 -4 218 -22 242
l-19 28 22 3 c31 5 45 0 45 -17z m-2967 -35 c11 -6 17 -16 14 -23 -6 -18 46
-43 56 -27 14 22 54 -60 54 -111 1 -35 5 -49 16 -52 10 -2 7 -5 -8 -9 -12 -3
-20 -2 -16 3 3 5 1 9 -3 9 -15 0 -46 -84 -49 -134 l-2 -48 29 6 c15 3 38 15
50 27 16 16 18 21 6 16 -9 -3 -17 -2 -17 3 0 6 7 10 16 10 9 0 14 6 11 13 -5
15 10 47 23 47 6 0 10 -7 10 -15 0 -8 -5 -15 -12 -15 -6 0 -9 -3 -5 -6 3 -3
-1 -23 -8 -44 -7 -21 -10 -42 -7 -46 4 -4 -3 -4 -15 -1 -20 4 -23 1 -23 -26 0
-31 0 -31 16 -9 8 12 23 22 33 22 19 0 18 6 6 -145 -2 -27 -4 -61 -4 -73 -1
-15 -8 -26 -21 -29 -11 -3 -20 -9 -20 -13 0 -5 8 -6 19 -3 21 5 38 -26 20 -38
-6 -4 -8 -12 -5 -18 4 -7 -1 -11 -13 -11 -15 0 -20 -8 -23 -32 -2 -26 -8 -34
-27 -36 -14 -2 -21 0 -17 6 4 6 2 13 -4 17 -5 3 -10 18 -10 32 0 28 -12 24
-16 -5 -19 -128 -28 -163 -48 -167 -113 -24 -166 -26 -166 -4 0 5 -6 9 -14 9
-8 0 -21 6 -28 13 -7 7 -21 16 -30 20 -20 7 -19 -2 -23 280 -1 97 2 180 6 183
5 3 7 10 4 15 -4 5 6 9 22 10 l28 1 -29 10 c-28 10 -28 11 -22 69 9 79 41 169
67 187 l22 15 -24 13 c-23 13 -23 13 -3 14 24 0 58 33 47 45 -5 4 -3 5 4 1 7
-4 30 3 53 14 22 11 40 16 40 10 0 -5 9 -10 20 -10 29 0 25 17 -7 28 -19 7
-22 11 -10 11 10 1 27 -4 37 -9z m3860 -112 c0 -6 7 -7 16 -4 8 3 13 2 10 -3
-3 -5 1 -14 9 -21 8 -7 15 -25 15 -41 0 -15 5 -31 11 -34 6 -4 8 -13 5 -21 -7
-19 3 -18 28 4 18 15 19 15 8 0 -10 -12 -11 -22 -3 -35 9 -17 10 -17 10 2 2
72 8 108 19 101 10 -6 8 -68 -3 -85 -6 -11 -4 -13 8 -8 18 7 24 -17 7 -28 -5
-3 -7 -12 -4 -19 3 -8 0 -17 -6 -21 -8 -5 -8 -10 0 -20 8 -10 8 -15 -1 -21 -7
-4 -17 0 -23 8 -6 8 -17 13 -23 11 -7 -3 -16 2 -19 11 -3 9 -11 13 -16 10 -6
-4 -14 0 -19 7 -6 10 -9 11 -9 2 0 -7 -6 -13 -14 -13 -21 0 -25 -21 -10 -52
10 -19 11 -29 3 -34 -8 -4 -7 -9 2 -15 9 -6 10 -9 2 -9 -6 0 -10 -8 -9 -17 2
-10 8 -18 14 -18 23 0 24 -15 1 -16 -17 -1 -19 -3 -6 -6 27 -7 20 -23 -10 -23
-48 0 -80 49 -52 77 7 7 13 28 14 47 2 31 0 33 -11 18 -8 -10 -13 -12 -14 -4
0 6 8 20 18 30 10 10 21 26 25 35 3 9 14 17 23 17 9 0 23 8 30 18 12 16 13 15
14 -5 0 -13 5 -23 11 -23 7 0 8 7 4 18 -3 9 -7 22 -8 27 -2 11 -18 25 -29 25
-5 0 -8 -10 -9 -22 0 -13 -3 -18 -5 -11 -3 7 -11 11 -17 9 -7 -1 -9 -1 -4 1
14 9 7 32 -8 27 -8 -4 -15 -12 -15 -19 0 -16 -35 -29 -50 -20 -5 3 -10 14 -10
23 0 13 2 13 15 -4 16 -22 17 -18 15 49 -1 29 3 47 10 47 6 0 11 10 10 23 -1
12 -2 25 -1 28 2 11 51 7 51 -3z m-4382 -68 c38 -23 67 -81 82 -161 10 -50 9
-55 -12 -71 l-23 -18 24 -19 c34 -26 23 -48 -23 -43 -20 2 -36 8 -36 14 0 5
-4 6 -10 3 -18 -11 -50 -14 -50 -5 0 13 -39 33 -71 36 -14 2 -38 8 -53 14 -25
9 -26 13 -20 47 14 83 66 172 118 204 38 23 34 23 74 -1z m6366 -21 c-4 -8 0
-9 15 -4 13 4 21 2 21 -5 0 -6 5 -8 10 -5 6 3 10 -1 10 -10 0 -12 -5 -15 -17
-10 -10 4 -29 10 -43 12 -24 5 -25 5 -5 -11 11 -8 28 -16 38 -16 9 0 17 -4 17
-10 0 -5 5 -10 11 -10 16 0 39 -27 39 -47 0 -15 2 -16 10 -3 8 13 10 12 11 -5
1 -11 3 -31 4 -45 1 -14 -2 -29 -9 -33 -8 -6 -7 -10 2 -14 9 -3 3 -12 -17 -24
-52 -31 -31 -70 26 -48 17 6 30 6 36 0 5 -5 26 -7 46 -5 l36 4 -35 -13 -35
-14 3 -139 c2 -76 8 -143 13 -148 15 -16 10 -24 -10 -19 -10 3 -22 0 -25 -6
-4 -6 0 -11 9 -11 11 0 15 -10 15 -37 -1 -21 1 -64 3 -96 2 -40 0 -54 -7 -47
-6 6 -9 27 -7 48 2 28 0 34 -9 26 -23 -22 -50 -4 -50 32 0 25 -4 34 -17 35
-43 2 -78 11 -85 22 -4 7 -8 29 -8 49 0 47 -16 57 -24 16 l-6 -32 -21 20 c-11
11 -21 30 -22 42 -1 12 -5 22 -9 22 -19 0 -7 58 15 74 l22 17 -22 -11 c-21
-10 -23 -8 -23 14 0 14 5 28 10 31 17 10 11 25 -7 18 -10 -4 -14 -2 -9 5 3 6
2 13 -4 17 -6 4 -10 -17 -10 -57 -1 -50 -3 -59 -11 -45 -6 11 -8 32 -5 48 3
19 1 29 -6 29 -6 0 -2 10 10 23 27 29 28 37 3 37 -16 0 -19 5 -14 28 3 15 5
35 5 44 0 10 3 20 9 23 5 4 9 -14 9 -40 0 -30 4 -44 11 -40 6 4 8 14 5 24 -5
12 -2 11 9 -3 14 -19 15 -18 15 18 0 33 4 39 36 52 20 8 34 18 31 20 -3 3 -15
0 -27 -6 -33 -18 -52 -6 -40 25 13 34 13 38 -2 29 -7 -5 -8 -3 -2 7 12 19 12
72 -1 81 -17 13 -103 9 -108 -4 -3 -7 -6 -3 -6 10 -1 12 4 22 10 22 6 0 26 12
44 26 19 14 38 23 43 21 4 -3 14 -2 22 4 22 13 83 12 74 -2z m-5479 -70 c-24
-9 -17 -11 60 -14 33 -1 99 -12 148 -25 87 -23 106 -38 70 -59 -16 -9 -18 -33
-21 -235 -2 -130 -7 -226 -12 -226 -5 0 -4 -11 2 -25 13 -29 32 -34 24 -7 -5
15 2 20 39 29 24 5 42 6 39 2 -3 -5 2 -9 10 -9 9 0 17 -4 18 -10 4 -29 1 -35
-17 -35 -17 0 -20 -6 -17 -39 2 -22 -2 -42 -8 -46 -9 -6 -9 -12 1 -27 22 -37
7 -49 -62 -48 -42 0 -63 4 -65 13 -1 7 0 8 3 2 8 -16 26 -11 19 6 -3 8 -2 12
4 9 6 -3 10 -1 10 4 0 6 -5 11 -11 11 -5 0 -8 4 -5 9 3 5 -1 11 -9 15 -8 3
-17 1 -19 -3 -3 -5 -16 -9 -28 -10 -13 -1 -36 -3 -52 -4 -16 -1 -31 4 -33 11
-3 6 2 12 11 12 9 0 16 4 16 10 0 5 -7 7 -15 4 -9 -4 -15 0 -15 9 0 8 -6 18
-12 20 -22 9 8 23 42 21 16 -1 27 2 24 7 -3 5 1 9 8 10 7 0 0 7 -17 14 -17 8
-23 14 -13 15 9 0 23 3 32 6 11 4 16 1 16 -10 0 -9 4 -16 10 -16 5 0 7 7 4 15
-8 21 5 19 25 -4 12 -14 21 -17 32 -10 11 7 12 11 1 18 -8 4 -13 12 -13 17 0
5 -13 8 -29 7 -27 -2 -29 1 -24 21 5 19 1 25 -23 31 l-28 8 25 7 25 6 -22 12
c-13 7 -23 9 -23 3 0 -13 -33 -8 -49 7 -10 10 -16 10 -21 2 -9 -14 -19 10 -21
48 -1 17 -3 21 -6 10 -6 -22 -19 -23 -27 -2 -3 8 -10 13 -15 10 -5 -3 -7 14
-6 39 2 25 -1 47 -6 51 -5 3 -9 -4 -9 -15 0 -13 -6 -21 -17 -21 -15 0 -16 2
-3 10 13 8 13 10 -2 10 -14 0 -17 8 -14 41 2 23 9 45 17 49 10 7 10 11 -1 24
-18 23 -21 64 -4 70 8 3 14 -1 15 -12 1 -9 2 -21 4 -27 1 -5 3 -16 3 -23 1 -9
10 -11 25 -7 15 4 18 3 8 -3 -9 -7 -10 -12 -2 -16 16 -10 4 -26 -14 -19 -8 3
-15 0 -15 -6 0 -6 9 -11 20 -11 13 0 24 -10 31 -27 l11 -28 10 25 c6 14 14 33
20 43 7 15 5 20 -11 24 -18 5 -18 7 -6 20 17 16 20 89 5 98 -5 3 -11 16 -11
28 -1 17 -3 15 -8 -8 l-7 -30 -5 35 c-4 35 -4 36 26 33 25 -3 23 -1 -13 13
-35 13 -46 14 -55 4 -9 -10 -9 -11 1 -6 17 10 15 -9 -3 -24 -12 -10 -15 -10
-15 3 0 8 -8 18 -17 22 -16 7 -15 9 7 15 23 8 23 8 -7 9 -18 1 -33 5 -33 11 0
13 59 27 90 22 23 -5 23 -6 5 -13z m-1283 -46 c33 -38 48 -83 48 -146 0 -51
-4 -66 -16 -71 -16 -6 -16 -8 0 -24 18 -21 21 -48 6 -57 -5 -3 -10 -1 -10 5 0
8 -9 10 -25 6 -18 -5 -27 -1 -35 14 -11 20 -11 20 -35 -6 -14 -15 -22 -30 -19
-33 4 -3 9 0 11 7 3 6 9 12 14 12 4 0 6 -7 3 -15 -4 -8 -1 -15 5 -15 6 0 11 5
11 11 0 8 14 10 41 6 22 -3 42 -7 44 -9 6 -6 7 -34 6 -145 -1 -100 -3 -113
-18 -114 -16 -1 -16 -2 -1 -6 11 -3 15 -13 14 -36 -2 -18 -4 -47 -5 -65 0 -21
-7 -35 -18 -39 -10 -4 -23 -13 -29 -21 -9 -12 -13 -13 -19 -2 -5 9 -4 11 3 6
7 -4 12 -1 12 8 0 9 -7 16 -15 16 -8 0 -15 5 -15 10 0 6 -6 10 -14 10 -8 0
-16 6 -19 13 -3 8 1 14 9 14 7 0 11 -4 8 -9 -3 -4 -1 -8 4 -8 13 0 23 27 16
45 -4 8 -11 12 -17 8 -5 -3 -7 -1 -3 5 3 6 2 13 -4 17 -5 3 -10 22 -10 40 0
29 -3 33 -17 28 -17 -6 -17 -6 -1 10 14 14 14 22 5 47 -7 18 -17 28 -24 26 -7
-3 -13 2 -13 10 0 11 6 14 16 10 12 -5 15 1 12 27 -2 26 0 32 16 30 22 -2 8
13 -19 20 -14 3 -11 5 10 6 l30 2 -30 13 c-19 8 -31 21 -32 35 -1 12 2 19 8
16 5 -4 9 -1 9 4 0 6 -5 11 -11 11 -5 0 -8 4 -5 8 3 5 -4 15 -14 22 -18 13
-18 15 -3 32 11 13 12 18 3 18 -18 0 -4 83 23 139 34 68 78 89 109 54z m-270
-246 c2 -53 -1 -97 -5 -97 -5 0 -6 -4 -3 -9 4 -5 -12 -5 -35 0 -29 7 -45 6
-55 -2 -11 -9 -14 -6 -14 15 0 23 3 27 23 22 l22 -6 -23 12 c-13 7 -21 17 -17
26 3 7 5 22 5 33 0 11 7 19 17 19 15 0 14 2 -3 15 -12 9 -14 14 -6 15 7 0 11
4 7 9 -9 15 14 56 38 67 34 15 45 -11 49 -119z m5917 -3 l1 -134 -30 0 -30 0
0 97 c0 76 -4 100 -17 115 -14 16 -14 18 -1 18 9 0 18 8 21 19 3 12 13 19 30
19 l26 0 0 -134z m-5295 51 c65 -8 123 -18 128 -23 4 -4 7 -100 6 -213 l-3
-204 -38 -20 c-21 -11 -35 -25 -32 -32 2 -8 -3 -13 -14 -13 -10 0 -34 -3 -52
-6 l-34 -6 44 27 c32 21 40 30 30 36 -22 14 -39 11 -39 -7 0 -22 -54 -15 -58
8 -3 13 2 16 23 12 17 -3 24 -1 20 6 -3 5 -13 10 -21 10 -12 0 -13 4 -3 21 6
12 9 29 6 38 -3 12 2 17 16 17 11 -1 22 5 24 12 3 8 -1 10 -13 5 -13 -5 -16
-3 -11 9 3 9 3 19 0 22 -3 3 -7 22 -8 42 -1 20 -8 40 -16 45 -9 6 -10 12 -4
17 12 8 15 53 3 46 -4 -3 -8 3 -8 12 0 10 -3 14 -6 11 -6 -6 -44 35 -44 47 0
3 10 6 22 6 31 0 11 16 -30 23 -30 6 -32 5 -21 -14 6 -11 8 -23 5 -26 -3 -3
-8 2 -12 11 -3 9 -11 13 -16 10 -6 -4 -8 2 -6 12 3 16 12 19 58 17 l55 -2 -48
12 c-44 11 -66 28 -67 51 0 4 10 5 23 2 12 -3 76 -13 141 -21z m5953 -145 c-3
-11 -1 -20 4 -20 6 0 9 -8 7 -17 -2 -11 3 -18 12 -18 9 0 14 7 12 17 -2 12 2
16 12 12 8 -3 12 -12 9 -20 -3 -8 0 -14 6 -14 6 0 11 9 11 20 0 17 4 18 25 10
15 -6 26 -6 30 0 11 18 26 10 20 -9 -4 -15 0 -21 17 -24 13 -2 -15 -5 -62 -6
-58 -2 -79 -5 -65 -11 19 -8 19 -9 -2 -9 -13 -1 -23 4 -23 9 0 6 -4 10 -10 10
-24 0 -7 -21 22 -27 27 -5 29 -7 13 -14 -17 -6 -17 -8 -3 -8 9 -1 20 4 23 9 3
6 17 10 31 10 21 0 24 -4 24 -41 0 -22 4 -38 9 -35 4 3 6 17 3 31 -3 18 0 25
12 25 9 0 19 -6 22 -14 3 -8 12 -12 20 -9 8 3 14 0 14 -6 0 -6 -10 -11 -22
-11 -12 0 -18 -3 -15 -7 15 -15 -33 -32 -97 -34 -84 -3 -91 6 -80 94 4 34 7
66 5 71 -3 14 8 56 15 56 4 0 4 -9 1 -20z m-1094 -50 c22 -6 3 -8 -65 -9 -54
-1 -98 -5 -98 -10 0 -18 21 -23 37 -10 13 11 17 10 28 -4 7 -10 26 -17 44 -17
17 0 31 -4 31 -10 0 -5 -10 -9 -22 -7 -18 1 -22 -2 -20 -19 2 -17 -4 -23 -25
-27 -15 -3 -43 -8 -60 -12 -26 -5 -33 -3 -33 9 0 9 -5 16 -11 16 -8 0 -8 81 0
108 2 6 163 -1 194 -8z m-5470 -34 c3 -8 2 -30 -4 -48 -5 -18 -7 -50 -3 -71 5
-34 3 -39 -16 -44 -20 -5 -21 -8 -7 -17 17 -13 20 -29 18 -98 -1 -36 -5 -48
-16 -48 -8 0 -15 5 -15 10 0 16 -40 12 -46 -5 -12 -31 -25 -13 -23 33 1 27 0
53 -3 58 -4 5 -3 47 1 92 4 45 4 82 0 82 -6 0 -4 24 7 58 5 18 100 16 107 -2z
m3352 -236 c-3 -5 -22 -10 -41 -10 -19 0 -34 -4 -34 -9 0 -4 22 -6 49 -3 56 5
109 -5 95 -17 -5 -5 -63 -12 -129 -15 -66 -4 -145 -9 -175 -11 -30 -3 -98 -7
-150 -10 -52 -3 -142 -8 -199 -11 -78 -5 -102 -4 -97 4 11 17 -9 15 -24 -3 -9
-10 -33 -15 -79 -16 -36 0 -101 -4 -144 -8 -43 -3 -81 -4 -85 -1 -13 9 -32 50
-25 51 5 0 29 2 56 5 36 4 49 1 53 -11 3 -8 10 -15 16 -15 5 0 7 3 5 8 -9 14
19 28 64 31 67 4 75 5 95 21 13 12 18 12 21 3 3 -7 12 -13 20 -13 9 0 22 -8
29 -17 10 -13 13 -13 9 -3 -9 26 34 35 130 29 63 -4 74 -6 37 -7 -32 -1 -51
-6 -47 -12 6 -10 165 -10 165 1 0 3 -5 10 -12 17 -9 9 -8 12 5 12 9 0 17 -7
17 -15 0 -28 97 -14 120 17 3 4 41 9 85 11 44 1 102 4 128 5 30 1 46 -2 42 -8z
m2245 -210 c106 -15 122 -19 114 -31 -4 -6 0 -15 7 -20 11 -7 10 -9 -4 -9 -16
0 -16 -2 -1 -25 15 -24 15 -25 -2 -25 -18 -1 -18 -1 0 -15 18 -13 1 -15 -160
-17 -98 -1 -146 -4 -106 -5 39 -2 72 -8 72 -13 0 -6 18 -13 40 -16 36 -6 40
-9 41 -38 1 -30 1 -30 9 -6 l8 25 7 -22 c9 -28 25 -30 26 -3 3 36 4 40 14 38
6 -2 9 -15 8 -30 -1 -21 3 -28 17 -28 40 0 49 -10 38 -40 -5 -16 -8 -37 -6
-47 3 -15 7 -12 21 12 15 28 16 28 17 7 0 -13 -5 -33 -11 -44 -6 -12 -7 -18
-1 -14 10 6 17 -7 33 -57 7 -24 5 -28 -7 -23 -72 28 -134 38 -195 33 -73 -6
-163 -42 -195 -78 -15 -17 -5 -14 41 12 57 32 65 34 160 34 89 0 106 -3 150
-26 60 -32 123 -94 149 -146 10 -21 25 -50 33 -65 9 -17 10 -28 4 -28 -6 0
-11 -6 -11 -14 0 -8 -6 -16 -12 -19 -10 -4 -10 -7 0 -18 21 -22 14 -39 -17
-39 -28 0 -29 1 -33 63 -3 38 -1 68 6 76 9 12 8 14 -5 9 -11 -5 -21 4 -32 31
-23 52 -51 73 -130 100 -56 20 -82 23 -140 18 -40 -3 -90 -12 -112 -21 -23 -9
-58 -18 -79 -19 -32 -2 -40 2 -47 20 -6 17 0 32 27 67 19 25 34 52 34 61 0 9
-25 45 -55 80 -51 58 -55 66 -55 113 0 35 4 52 15 56 10 3 14 15 11 35 -2 17
-1 33 3 36 3 4 6 12 7 18 0 7 2 23 3 37 l3 25 8 -25 c7 -23 8 -23 9 9 l1 33
103 -6 c56 -4 136 -11 177 -16z m3166 -208 c-3 -5 11 -14 31 -20 31 -10 40 -9
57 6 11 9 16 11 12 5 -4 -7 -2 -13 3 -13 17 0 13 -37 -5 -54 -10 -10 -11 -16
-3 -16 9 0 8 -4 -1 -15 -10 -12 -10 -15 1 -15 10 0 10 -3 1 -12 -7 -7 -12 -20
-12 -31 0 -10 -7 -25 -15 -33 -8 -9 -15 -20 -15 -25 0 -6 7 -3 16 6 12 12 19
13 30 4 24 -19 16 -29 -23 -28 -48 1 -81 13 -65 23 7 4 17 4 24 0 7 -4 8 -3 4
4 -4 7 -1 12 6 13 9 0 9 2 2 5 -7 3 -9 15 -7 27 5 18 3 20 -8 10 -19 -19 -32
-16 -20 4 5 11 5 26 0 41 -11 28 -3 44 11 22 8 -13 10 -12 10 3 0 9 -4 17 -10
17 -5 0 -9 10 -7 22 1 13 -4 23 -13 25 -12 3 -15 -8 -16 -51 0 -30 -6 -61 -14
-71 -7 -9 -9 -15 -4 -14 18 3 25 -1 19 -11 -5 -8 -11 -7 -21 1 -15 12 -20 89
-6 89 13 0 11 33 -2 49 -8 11 -8 13 1 8 7 -4 14 1 18 13 3 11 11 20 16 20 6 0
8 -4 5 -8z m-4062 -148 c45 -16 135 -88 124 -99 -3 -3 -16 -2 -29 3 -31 12
-148 7 -191 -7 -19 -6 -50 -28 -69 -48 -19 -21 -24 -30 -12 -20 14 12 23 15
28 8 3 -6 2 -11 -2 -11 -5 0 -9 -9 -9 -20 0 -17 5 -15 36 15 19 19 52 41 72
50 51 21 171 20 192 -1 26 -25 19 -34 -28 -34 -71 0 -93 -13 -107 -62 -7 -24
-16 -47 -21 -53 -4 -5 -8 -19 -8 -32 0 -22 2 -23 100 -23 l100 0 0 -25 c0 -29
-29 -36 -31 -7 -1 15 -2 15 -6 -1 -4 -14 -12 -18 -29 -14 -17 3 -24 0 -25 -12
-1 -9 -5 -2 -9 14 -8 30 -8 30 -9 3 -1 -26 -2 -27 -68 -26 -124 1 -120 2 -128
-39 -3 -21 -9 -86 -12 -145 l-5 -108 -29 0 -29 0 1 143 c0 88 4 134 9 122 8
-19 9 -19 9 -1 1 14 7 17 26 14 14 -3 25 -2 25 2 0 4 -18 10 -40 12 l-40 4 -2
-151 -2 -150 -6 150 -6 150 -2 -147 -2 -148 -30 0 c-29 0 -30 2 -32 48 l-2 47
-3 -47 -4 -48 -40 0 c-28 0 -39 4 -39 15 0 8 -4 15 -10 15 -5 0 -10 12 -9 28
l1 27 8 -25 c8 -24 8 -23 9 8 1 20 -3 31 -9 27 -5 -3 -10 -1 -10 4 0 6 5 11
10 11 6 0 10 33 10 80 0 57 4 80 13 81 6 0 2 5 -10 11 -29 14 -38 40 -19 54
22 16 20 44 -3 44 -23 0 -26 49 -4 57 11 5 12 8 2 14 -10 6 -9 17 5 52 45 119
168 207 291 207 34 0 83 -7 109 -16z m-963 -53 c27 -26 49 -53 49 -58 0 -6
-15 -21 -34 -34 -39 -26 -70 -74 -60 -90 3 -6 17 -8 31 -4 15 3 22 2 19 -4 -3
-5 0 -12 6 -14 8 -4 7 -6 -4 -6 -9 -1 -23 -4 -32 -7 -11 -4 -16 -1 -16 10 0
27 -15 18 -32 -19 -8 -19 -12 -35 -7 -35 5 0 8 -21 7 -47 l-1 -48 -7 45 -7 45
-3 -50 c-2 -45 -3 -47 -10 -20 -4 17 -8 25 -9 19 0 -6 -12 -9 -26 -6 -15 2
-25 0 -25 -7 0 -7 5 -9 10 -6 6 3 10 2 10 -4 0 -6 8 -7 18 -4 15 6 15 5 3 -10
-7 -9 -22 -17 -32 -17 -16 0 -19 8 -21 53 l-1 52 -7 -55 -7 -55 -3 50 -3 50
-6 -45 c-6 -46 -31 -68 -32 -28 l0 23 -9 -22 c-17 -42 -40 -28 -42 25 l-1 47
-6 -45 c-6 -43 -7 -45 -38 -44 -33 0 -61 14 -30 14 19 0 23 35 6 46 -6 3 -8
15 -6 26 4 15 2 17 -7 9 -11 -10 -66 -12 -66 -3 0 1 10 7 23 13 16 7 3 8 -49
5 -38 -2 -77 0 -85 5 -12 7 -12 9 2 9 11 0 14 7 11 29 -3 23 1 30 20 35 22 7
22 7 3 16 -17 7 -15 9 13 9 18 1 32 -4 32 -11 0 -6 3 -8 6 -5 4 4 2 13 -4 20
-7 8 -9 17 -5 20 3 4 0 14 -8 23 -12 15 -12 16 6 11 11 -3 37 -8 58 -12 20 -3
37 -11 37 -17 0 -6 3 -9 6 -5 3 3 5 7 4 9 -5 8 101 108 131 124 48 25 109 43
148 43 28 1 43 -8 82 -48z m-979 -28 c45 -46 77 -116 85 -183 5 -46 4 -50 -16
-50 -26 0 -27 -15 -1 -37 23 -20 28 -82 8 -84 -7 -1 -52 -3 -100 -4 -84 -3
-88 -2 -88 18 0 64 -60 167 -96 167 -22 0 -17 38 9 63 12 13 22 28 23 35 1 7
2 18 3 25 1 12 69 65 101 79 27 12 35 9 72 -29z m3815 -39 c29 -14 63 -38 77
-54 50 -60 86 -210 49 -203 -9 2 -13 -12 -14 -45 -1 -26 -4 -36 -6 -23 -4 19
-7 21 -14 10 -7 -11 -9 -10 -10 6 -1 14 -4 10 -9 -10 -7 -29 -8 -29 -10 10
l-3 40 -7 -40 -7 -40 -3 50 -3 50 -7 -50 -7 -50 -3 50 -3 50 -7 -50 -7 -50 -1
43 c-1 24 -6 41 -11 38 -4 -3 -6 6 -3 19 3 19 0 25 -13 25 -12 0 -16 6 -12 20
3 13 0 20 -9 20 -12 0 -19 20 -15 44 1 4 -6 14 -16 22 -14 10 -15 13 -3 14 21
0 -2 20 -31 25 -13 3 -35 13 -49 23 -33 24 -61 36 -80 33 -28 -5 14 29 56 45
50 18 115 11 181 -22z m-4618 -13 c28 -39 27 -41 -16 -41 -48 0 -96 -29 -117
-71 -9 -18 -15 -33 -14 -34 20 -16 48 -23 53 -14 4 5 19 9 33 8 15 -2 33 0 40
5 7 4 24 5 38 2 14 -4 24 -2 24 4 0 6 5 8 10 5 6 -3 10 -21 10 -40 0 -25 -5
-35 -20 -40 -21 -7 -28 -25 -10 -25 6 0 9 -18 8 -40 -2 -22 -3 -40 -3 -41 0 0
-21 -3 -48 -6 -30 -3 -53 -1 -62 7 -10 8 -15 9 -15 2 0 -7 -38 -11 -105 -11
l-105 -1 0 26 c0 21 3 24 13 15 8 -6 17 -8 20 -4 4 3 13 0 22 -7 11 -9 15 -9
15 -1 0 7 5 9 10 6 6 -4 7 -11 4 -17 -4 -7 -2 -8 5 -4 6 4 9 12 6 17 -4 5 -1
9 4 9 6 0 11 -4 11 -10 0 -5 6 -10 14 -10 17 0 28 70 13 85 -6 7 -11 6 -14 -2
-3 -7 -18 -13 -34 -13 -23 0 -29 -4 -30 -22 -1 -22 -2 -20 -15 21 -3 10 -7 11
-19 1 -8 -7 -12 -16 -9 -21 3 -5 1 -9 -4 -9 -5 0 -12 8 -14 18 -4 15 -13 17
-43 14 l-37 -4 7 33 c19 97 24 107 48 103 12 -2 17 -2 10 1 -13 7 1 60 22 83
9 10 11 9 10 -9 -1 -13 -7 -25 -13 -27 -25 -8 -11 -22 16 -16 34 9 35 9 37 36
1 12 7 24 15 26 8 3 10 0 5 -9 -6 -11 -5 -12 6 -1 21 19 41 15 34 -7 -9 -31
46 -21 57 9 8 22 9 22 22 5 13 -18 14 -18 20 2 6 17 37 40 58 42 4 1 16 -12
27 -28z m6144 -142 c21 -22 22 -29 3 -29 -11 0 -12 -5 -3 -25 7 -14 17 -25 22
-25 6 0 11 -21 11 -46 1 -34 -2 -44 -12 -40 -8 3 -11 0 -7 -10 3 -7 10 -14 16
-14 6 0 2 -6 -8 -14 -12 -9 -16 -19 -11 -32 6 -15 5 -17 -5 -6 -8 7 -41 12
-86 12 -57 0 -73 3 -73 14 0 8 5 18 10 21 16 10 12 23 -7 21 -14 -1 -19 8 -21
44 -6 82 7 131 44 168 l34 34 38 -28 c20 -15 45 -35 55 -45z m-599 -21 c37
-42 45 -44 25 -5 -11 20 -10 21 6 6 18 -18 34 -76 35 -126 0 -34 -19 -47 -21
-15 -1 16 -2 16 -6 0 -4 -14 -15 -16 -71 -14 -37 2 -72 4 -77 5 -11 1 -11 99
0 159 5 29 9 32 40 32 27 0 40 -8 69 -42z m-1888 -9 c7 -19 13 -30 13 -26 2
16 27 -17 29 -37 3 -40 -13 -45 -100 -32 -27 4 -28 3 -30 -42 l-1 -47 -7 45
c-4 25 -8 38 -9 30 -1 -13 -2 -13 -11 0 -7 11 -10 -7 -12 -60 -1 -57 -2 -64
-5 -26 -4 42 -7 47 -24 43 -16 -4 -19 0 -19 24 0 18 -5 28 -12 27 -7 -2 -13 4
-13 12 0 8 6 14 13 13 6 -2 12 3 12 10 0 8 4 7 10 -3 9 -13 10 -13 10 0 0 13
1 13 10 0 9 -13 10 -13 10 0 0 13 1 13 10 0 9 -13 10 -13 10 0 0 13 1 13 10 0
7 -11 10 -11 10 -2 0 7 5 10 11 6 8 -4 9 1 4 15 -8 26 1 71 15 71 5 0 7 -7 4
-15 -4 -8 -2 -15 4 -15 16 0 34 28 26 41 -4 7 -2 10 6 7 8 -2 19 -20 26 -39z
m-6480 -36 c-5 -22 -4 -25 4 -13 9 12 13 12 17 2 4 -10 10 -9 25 5 19 17 19
17 13 -10 -7 -27 -6 -28 21 -22 l29 5 -27 -13 c-27 -12 -27 -14 -10 -31 16
-18 16 -18 -5 -7 -19 10 -23 9 -23 -4 0 -8 -4 -15 -10 -15 -5 0 -10 5 -10 12
0 6 -11 1 -25 -12 -16 -15 -25 -19 -25 -10 0 35 -16 -8 -21 -58 l-6 -57 -2 57
c0 31 -6 60 -12 64 -6 3 -9 15 -6 25 4 14 0 19 -16 19 -20 1 -21 1 -4 11 14 8
16 14 6 25 -9 11 -8 14 4 14 8 0 18 7 21 17 6 15 8 14 20 -2 13 -18 14 -18 27
3 18 29 22 28 15 -5z m4693 -233 c0 -77 -5 -140 -9 -140 -5 0 -11 10 -13 23
-4 20 -4 20 -6 -3 -1 -21 -6 -26 -26 -26 -26 0 -35 21 -12 29 10 4 10 7 0 18
-15 16 -18 73 -3 64 6 -3 10 3 10 14 0 11 -4 23 -10 26 -5 3 -10 32 -10 63 0
31 4 53 8 47 13 -18 32 -15 32 5 0 13 7 20 20 20 20 0 21 -5 19 -140z m-521
73 l2 57 40 0 c22 0 40 -4 40 -9 0 -5 -8 -8 -17 -7 -14 1 -18 -8 -20 -36 -1
-21 2 -40 7 -43 6 -3 5 -16 0 -31 -13 -33 -13 -34 6 -34 11 0 15 6 11 20 -3
11 -1 18 4 14 11 -6 12 -144 1 -144 -4 0 -8 23 -7 50 1 47 -6 62 -20 41 -3 -5
-1 -13 5 -16 8 -5 8 -11 0 -20 -6 -7 -10 -17 -9 -21 6 -32 -3 -44 -31 -44
l-30 0 2 143 c1 107 3 127 8 82 l7 -60 1 58z m-758 -118 l3 40 7 -45 c5 -30 8
-37 10 -20 2 21 4 20 10 -10 6 -27 7 -17 7 40 0 61 -1 68 -7 35 -6 -36 -7 -33
-10 30 -3 63 -4 66 -10 30 l-7 -40 -2 46 c-1 33 3 49 14 53 12 4 15 -4 16 -37
l2 -42 7 40 c5 29 8 10 10 -75 l4 -115 6 80 6 80 4 -80 4 -80 5 70 5 70 7 -70
6 -70 -1 83 c-1 60 2 82 12 82 6 0 12 6 12 14 0 9 -7 13 -20 11 -13 -2 -20 2
-20 11 0 8 5 12 10 9 6 -3 10 1 10 9 0 13 16 16 100 16 l100 0 0 -102 c-1 -79
-4 -108 -17 -123 -12 -16 -14 -16 -10 -3 4 11 0 21 -11 27 -10 6 -12 11 -4 11
6 0 12 7 12 15 0 9 -6 12 -15 9 -8 -4 -15 -15 -15 -26 0 -13 -6 -18 -17 -16
-11 2 -18 12 -17 26 1 12 -3 22 -7 22 -5 0 -9 -16 -9 -35 0 -24 -6 -39 -20
-47 -11 -7 -20 -18 -20 -25 0 -17 -23 -12 -32 7 -5 12 -7 11 -8 -5 -2 -17 -3
-16 -10 5 l-8 25 -2 -25 -2 -25 -8 25 -8 25 -2 -25 -2 -25 -8 25 -8 25 -2 -25
-2 -25 -8 25 -8 25 -2 -25 c-1 -23 -2 -23 -10 -5 -7 17 -9 17 -9 3 -1 -10 -8
-18 -16 -18 -13 0 -15 22 -13 143 l2 142 6 -105 c3 -58 8 -87 10 -65z m-541
123 c0 -22 -1 -22 -9 -3 -7 16 -9 17 -9 3 -1 -9 -12 -26 -26 -37 l-26 -20 23
-3 c20 -3 23 -9 26 -58 2 -30 1 -70 -3 -87 l-6 -33 -101 0 c-84 0 -103 3 -114
18 -13 16 -13 16 -14 0 0 -18 -20 -26 -20 -9 0 21 -34 21 -53 0 -14 -15 -22
-18 -25 -10 -3 9 -10 8 -27 -3 -27 -18 -33 -12 -30 24 1 14 -1 35 -6 48 -5 12
-5 22 -1 22 4 0 6 16 4 35 -7 61 4 83 48 95 21 6 42 15 45 21 5 6 59 8 153 5
87 -3 135 -2 117 3 -29 8 -28 9 13 10 37 1 42 -1 41 -21z m6102 -46 c1 -15 2
-15 6 1 2 9 8 17 12 17 11 0 40 -38 34 -44 -4 -3 -1 -6 6 -6 9 0 11 -8 7 -25
-5 -18 -3 -23 7 -19 11 4 14 -7 13 -46 -1 -44 -4 -52 -24 -56 -12 -4 -30 0
-39 7 -13 11 -17 11 -20 2 -3 -9 -30 -13 -88 -13 l-84 0 2 100 c2 75 5 100 16
102 7 2 44 2 82 0 56 -3 69 -7 70 -20z m-7379 -72 c5 0 8 7 4 15 -3 8 -2 15 3
15 14 0 18 -33 11 -88 -4 -33 -3 -53 4 -55 27 -10 -9 -18 -85 -20 -70 -2 -83
0 -80 13 2 8 3 34 2 58 -2 33 2 42 14 42 9 0 13 -4 10 -10 -3 -5 -2 -10 4 -10
5 0 12 -10 14 -22 4 -20 4 -19 6 5 0 15 6 27 11 27 6 0 10 9 10 20 0 16 -7 20
-32 21 l-33 1 40 11 c28 7 40 7 43 -1 2 -8 9 -6 20 5 16 16 17 15 20 -5 2 -12
8 -22 14 -22z m2577 -160 c1 28 5 36 20 37 16 1 20 -6 23 -35 6 -71 -3 -262
-13 -262 -5 0 -9 8 -10 18 0 14 -2 14 -9 -3 -7 -17 -9 -14 -11 15 l-2 35 -7
-35 c-4 -21 -7 29 -7 120 0 93 3 139 7 115 l7 -40 2 35z m-1329 19 c0 -6 7 -8
18 -4 12 4 9 -1 -7 -16 -15 -14 -20 -24 -12 -27 13 -4 4 -73 -12 -83 -21 -14
-46 3 -44 30 1 16 -3 25 -10 24 -7 -2 -13 3 -13 10 -1 6 -7 -2 -15 -20 -7 -17
-12 -42 -9 -55 2 -13 2 -17 -2 -10 -9 18 -21 14 -27 -9 -5 -19 -11 -21 -42
-16 -34 6 -36 4 -29 -16 4 -12 13 -26 20 -30 8 -4 14 -17 14 -29 0 -17 -2 -18
-15 -8 -11 9 -19 9 -28 2 -7 -6 -26 -9 -42 -7 -17 2 -33 4 -37 4 -13 1 -9 29
5 34 9 4 8 8 -3 16 -17 11 -44 -5 -37 -23 5 -13 -12 -30 -35 -34 -12 -2 -18 6
-21 30 -3 23 -4 17 -5 -19 -1 -29 -6 -53 -10 -53 -4 0 -8 50 -8 110 1 71 4
110 11 110 7 0 9 14 7 34 -2 18 1 37 7 40 6 4 11 2 11 -3 0 -6 7 -11 15 -11 8
0 15 6 15 14 0 12 28 15 152 15 83 1 154 4 157 6 9 9 31 5 31 -6z m-767 -57
c-3 -12 -9 -22 -14 -22 -5 0 -9 -11 -9 -25 0 -20 5 -25 25 -25 24 0 25 -3 25
-54 0 -37 -4 -54 -12 -53 -68 2 -107 -16 -55 -26 12 -2 -6 -5 -40 -6 -49 -1
-63 2 -63 13 0 8 5 18 10 21 6 3 10 26 10 50 0 47 9 55 61 55 25 0 29 4 29 28
0 21 -2 24 -10 12 -5 -8 -10 -12 -10 -8 0 3 -3 13 -6 22 -4 11 0 16 15 16 11
0 26 6 33 14 16 18 19 15 11 -12z m-540 -31 c4 0 7 -8 7 -16 0 -21 13 -19 30
5 20 28 25 25 40 -19 12 -38 6 -86 -10 -76 -5 3 -11 1 -15 -5 -9 -15 -35 -12
-35 4 0 16 -32 26 -61 19 -12 -3 -18 -11 -15 -19 3 -8 1 -14 -4 -14 -6 0 -10
9 -10 20 0 16 -7 20 -32 20 -38 0 -34 7 7 13 27 3 30 7 28 38 -2 27 -1 30 6
14 9 -20 10 -20 10 1 1 20 10 23 54 15z m3347 -63 c0 -4 -10 -8 -22 -8 -13 0
-30 -5 -38 -10 -12 -8 -10 -10 10 -10 14 0 33 -7 43 -15 11 -7 25 -11 32 -9
18 7 28 -13 16 -33 -9 -16 -10 -16 -11 -2 0 28 -36 29 -59 3 -24 -28 -26 -36
-8 -33 13 3 76 -10 90 -18 4 -2 1 -11 -7 -18 -11 -12 -21 -12 -47 -3 -29 10
-31 12 -13 19 14 5 7 8 -22 8 -27 1 -44 6 -47 16 -5 11 -18 13 -57 8 -54 -6
-57 -3 -40 41 7 20 16 26 40 26 18 0 29 -4 25 -10 -3 -5 0 -10 7 -11 10 0 10
-2 1 -6 -18 -7 -16 -23 3 -23 9 0 14 7 12 18 -1 9 1 23 5 29 4 7 3 22 -3 33
-10 19 -8 20 40 18 27 -1 50 -6 50 -10z m-4703 -102 c3 -3 -6 -6 -20 -6 -19 0
-25 -4 -21 -15 4 -10 0 -15 -15 -15 -12 0 -21 -4 -21 -10 0 -5 -22 -12 -50
-16 -27 -4 -48 -10 -45 -14 8 -13 -55 -17 -79 -5 -12 7 -36 15 -52 19 l-29 8
24 12 24 13 -27 7 c-27 7 -27 26 0 26 10 0 12 -5 8 -12 -6 -10 -5 -10 7 -1 22
18 280 26 296 9z m3555 -186 c16 0 31 -6 34 -14 3 -8 16 -17 30 -20 21 -6 37
-38 17 -35 -5 1 -17 0 -28 -1 -11 -1 2 -6 28 -10 27 -5 52 -11 55 -15 23 -22
-69 -25 -273 -8 -55 5 -128 8 -162 7 -41 -1 -63 2 -63 10 0 6 -4 6 -9 -2 -10
-17 -106 -12 -106 5 0 6 -3 15 -7 19 -5 4 -8 0 -8 -9 0 -14 -10 -17 -57 -17
-38 0 -53 3 -44 9 8 5 21 7 29 3 10 -3 13 -1 8 6 -5 8 -1 10 10 5 12 -4 15 -3
10 5 -4 7 -1 12 8 12 16 0 31 34 21 50 -5 8 15 9 62 4 67 -7 135 -9 223 -6 54
2 76 2 115 2 17 0 37 4 45 10 9 6 18 6 24 0 6 -6 23 -10 38 -10z"/>
<path d="M3792 6624 c-7 -15 -17 -22 -24 -18 -7 5 -8 3 -4 -5 5 -7 15 -10 23
-7 10 4 13 1 8 -13 -3 -11 -1 -22 4 -25 14 -9 2 -36 -15 -36 -8 0 -14 -8 -14
-17 0 -15 -2 -16 -10 -3 -7 11 -10 6 -10 -20 0 -54 -10 -82 -25 -70 -8 7 -11
5 -10 -8 0 -9 4 -22 7 -28 4 -5 5 -23 2 -39 -7 -53 -9 -93 -4 -91 3 1 16 7 30
13 55 24 111 35 125 23 9 -8 26 -5 64 10 28 11 55 19 59 19 25 -4 30 3 22 36
-4 20 -4 38 1 41 5 3 6 10 3 16 -5 7 0 9 14 6 12 -4 22 -2 22 4 0 6 -13 8 -32
4 -18 -4 -41 -8 -50 -9 -10 -1 -18 -5 -18 -10 0 -5 -7 -7 -15 -4 -8 4 -17 1
-21 -5 -4 -7 -9 -6 -14 2 -11 18 -30 3 -30 -23 0 -27 -19 -57 -26 -41 -3 6
-13 27 -23 47 -20 38 -15 46 28 42 21 -2 22 0 7 10 -21 16 -21 26 2 19 15 -5
15 -4 -1 10 -12 9 -19 28 -19 50 0 27 -4 36 -16 36 -11 0 -13 3 -6 8 17 11 23
72 7 72 -7 0 -13 7 -13 15 0 23 -16 18 -28 -11z"/>
<path d="M3590 6368 c0 -9 -9 -18 -22 -20 -19 -3 -22 -9 -21 -55 0 -45 -3 -53
-18 -53 -10 0 -20 3 -23 8 -6 10 -96 8 -119 -2 -13 -6 -16 -5 -11 8 3 9 1 16
-5 16 -6 0 -11 14 -11 32 0 39 -11 31 -13 -10 -2 -22 -13 -39 -41 -61 -21 -17
-44 -31 -50 -31 -6 0 -3 5 7 11 9 6 15 15 11 20 -4 6 -13 4 -25 -7 -10 -9 -16
-21 -13 -25 3 -5 0 -9 -5 -9 -6 0 -11 5 -11 10 0 6 -5 10 -11 10 -6 0 -8 -7
-5 -16 4 -10 1 -14 -6 -12 -7 3 -14 10 -14 16 -1 7 -3 22 -4 35 -2 17 -3 18
-7 5 -2 -10 -10 -18 -18 -18 -16 0 -29 -48 -17 -63 5 -7 6 -38 3 -69 -6 -53
-4 -63 16 -55 3 1 6 27 5 57 0 30 2 47 5 37 4 -14 8 -16 19 -6 12 10 14 4 13
-32 -1 -37 -2 -40 -9 -19 l-8 25 -1 -27 c-1 -16 4 -28 11 -28 12 0 147 44 183
60 11 4 35 14 53 22 24 10 32 19 32 38 0 14 5 32 10 40 8 12 10 12 10 1 0 -10
6 -7 18 7 13 15 22 18 29 11 16 -16 34 22 36 71 1 36 3 38 17 25 12 -12 12
-17 3 -23 -9 -5 -12 -26 -10 -60 2 -30 -1 -52 -6 -52 -6 0 -8 -2 -5 -5 3 -3
11 -3 19 0 10 4 13 19 11 54 -4 45 -2 49 22 53 17 3 31 -1 42 -13 21 -23 44
-25 44 -4 0 8 -9 15 -21 15 -12 0 -17 4 -14 11 4 6 13 8 20 5 7 -2 15 4 18 15
3 12 0 19 -9 19 -8 0 -14 -4 -14 -10 0 -5 -8 -10 -18 -10 -10 0 -23 -5 -29
-11 -18 -18 -36 1 -30 30 3 15 2 33 -4 41 -7 13 -9 12 -9 -2z"/>
<path d="M4122 3008 c-1 -43 -6 -78 -12 -78 -5 0 -7 -12 -4 -27 3 -16 1 -46
-3 -68 -17 -76 -14 -78 90 -70 51 4 96 11 101 16 6 5 -1 9 -18 9 -20 0 -27 4
-23 14 3 8 1 17 -6 20 -9 3 -8 8 3 15 12 8 6 11 -25 12 -27 0 -34 3 -22 8 22
8 22 19 0 43 -8 9 -12 22 -8 27 3 6 -2 14 -12 18 -15 6 -13 9 12 19 l30 13
-30 1 c-37 0 -62 27 -68 72 -2 18 -5 -2 -5 -44z"/>
<path d="M11264 2133 c0 -21 4 -41 8 -44 5 -3 9 -24 10 -47 1 -41 20 -58 31
-29 3 7 6 5 6 -5 1 -10 -5 -18 -11 -18 -9 0 -8 -4 2 -10 13 -8 13 -10 -2 -10
-22 0 -44 -42 -51 -101 -4 -32 -3 -46 6 -46 7 0 29 -4 50 -8 36 -7 37 -6 37
21 1 16 7 52 14 79 11 41 11 53 1 65 -8 9 -13 35 -12 63 2 36 -2 52 -15 61
-10 7 -18 19 -18 26 0 14 -29 39 -46 40 -7 0 -11 -16 -10 -37z"/>
</g>
</svg>
