<?xml version="1.0" standalone="no"?>
<!DOCTYPE svg PUBLIC "-//W3C//DTD SVG 20010904//EN"
 "http://www.w3.org/TR/2001/REC-SVG-20010904/DTD/svg10.dtd">
<svg version="1.0" xmlns="http://www.w3.org/2000/svg"
 width="1280.000000pt" height="720.000000pt" viewBox="0 0 1280.000000 720.000000"
 preserveAspectRatio="xMidYMid meet">
<metadata>
Created by potrace 1.16, written by Peter Selinger 2001-2019
</metadata>
<g transform="translate(0.000000,720.000000) scale(0.100000,-0.100000)"
fill="#000000" stroke="none">
<path d="M11075 7168 c4 -18 11 -37 16 -42 5 -6 9 -29 9 -53 0 -24 5 -43 10
-43 6 0 10 4 10 8 0 5 54 8 119 8 65 -1 117 -4 114 -8 -2 -5 -11 -8 -19 -8 -8
0 -14 -4 -14 -10 0 -6 53 -10 140 -10 87 0 140 -4 140 -10 0 -5 -18 -10 -40
-10 -22 0 -40 -5 -40 -11 0 -5 4 -8 9 -5 5 4 59 8 120 11 92 5 111 3 111 -9 0
-16 51 -23 167 -22 40 1 73 -3 73 -8 0 -5 29 -6 65 -2 35 4 93 2 127 -3 35 -6
138 -12 229 -15 91 -3 213 -8 272 -12 l107 -7 0 147 0 146 -866 0 -866 0 7
-32z"/>
<path d="M8936 6823 c-3 -7 -18 -15 -33 -19 -56 -13 -107 -47 -173 -114 -85
-84 -95 -114 -85 -255 6 -84 11 -104 31 -128 13 -16 24 -34 24 -40 0 -7 20
-52 45 -102 30 -60 51 -120 64 -180 10 -49 21 -97 25 -106 5 -12 -4 -21 -43
-38 -27 -11 -64 -21 -81 -21 -61 0 -226 -43 -304 -79 -45 -21 -110 -57 -146
-82 -62 -42 -177 -93 -285 -125 -48 -15 -97 -19 -325 -29 -58 -3 -116 -8 -130
-11 -14 -3 -52 -10 -85 -16 -33 -5 -71 -12 -85 -14 -86 -15 -175 -21 -250 -16
-135 9 -172 6 -182 -12 -12 -21 -99 -22 -136 -1 -15 8 -62 24 -104 35 -72 19
-86 20 -195 9 -65 -6 -129 -11 -143 -11 -35 0 -54 -16 -39 -35 7 -7 10 -15 8
-17 -2 -3 -48 -9 -102 -15 -113 -13 -141 -24 -134 -52 3 -12 0 -19 -8 -19 -8
0 -21 -10 -29 -22 -18 -25 -6 -48 25 -48 12 0 19 -9 21 -27 3 -25 7 -28 46
-31 37 -3 42 -6 42 -27 0 -30 1 -30 180 -44 256 -21 386 -13 472 29 27 13 62
20 97 20 l56 0 74 -189 c75 -193 116 -272 209 -399 52 -72 52 -72 100 -72 26
0 83 4 127 9 77 9 309 20 481 22 56 1 90 -3 110 -14 41 -22 91 -42 153 -62
l54 -18 -7 -286 c-5 -157 -9 -312 -10 -344 -1 -57 -2 -58 -26 -54 -141 27
-165 28 -181 5 -3 -4 -20 -3 -37 3 -19 6 -59 9 -95 5 -37 -3 -56 -2 -48 3 19
12 -68 26 -98 16 -13 -4 -21 -2 -21 5 0 6 -5 10 -12 8 -17 -6 -48 23 -48 44 0
9 -9 22 -19 28 -23 12 -71 14 -71 3 0 -5 -32 -9 -70 -11 -53 -2 -72 1 -76 11
-3 8 -23 23 -44 33 -22 11 -40 24 -40 31 0 6 -9 15 -20 18 -11 3 -20 10 -20
14 0 10 -74 61 -114 78 -15 7 -47 13 -71 13 -52 0 -66 15 -72 76 -2 26 -6 51
-9 56 -10 15 -124 4 -135 -13 -5 -8 -9 -34 -9 -58 0 -37 -2 -42 -17 -35 -51
23 -171 15 -248 -16 -60 -25 -96 -32 -110 -20 -10 8 -19 8 -35 -2 -27 -17 -37
-2 -33 48 1 20 -2 45 -7 54 -7 13 -6 20 1 22 17 6 1 45 -21 51 -14 3 -17 1
-13 -11 5 -12 2 -14 -13 -7 -25 10 -71 13 -83 6 -5 -4 -11 -34 -12 -68 -1 -34
-5 -66 -8 -72 -4 -6 -23 -6 -51 0 -25 5 -70 13 -100 17 -46 6 -56 11 -58 28
-2 12 -12 24 -23 27 -13 3 -19 14 -19 31 0 14 4 26 8 26 5 0 25 16 45 35 20
19 41 35 47 35 13 0 13 17 0 25 -5 3 -7 11 -4 18 2 7 -12 21 -33 32 -21 10
-61 43 -90 72 -28 29 -56 53 -63 53 -6 0 -26 11 -43 24 -35 26 -188 106 -204
106 -15 0 -63 24 -63 33 0 4 -12 7 -27 6 l-28 -1 28 -10 c15 -5 27 -16 27 -24
0 -8 6 -11 18 -7 9 3 14 3 10 -1 -10 -12 -91 -14 -116 -3 -12 6 -21 16 -18 23
3 7 -2 11 -12 10 -9 -2 -21 -16 -27 -32 -9 -27 -13 -29 -52 -26 -30 2 -43 -1
-43 -10 0 -13 -44 -38 -67 -38 -7 0 -13 5 -13 10 0 6 -18 10 -40 10 -22 0 -40
-4 -40 -10 0 -16 -37 -11 -44 6 -3 8 -11 12 -17 8 -6 -3 -15 0 -20 7 -7 9 -8
5 -3 -13 9 -40 -17 -62 -64 -55 -24 4 -32 3 -22 -3 12 -8 12 -10 -3 -16 -10
-3 -29 -4 -42 -2 -16 4 -25 1 -25 -8 0 -14 -57 -74 -71 -74 -5 0 -9 7 -9 16 0
22 -23 12 -35 -14 -5 -12 -18 -25 -27 -28 -10 -3 -18 -12 -18 -20 0 -8 -4 -14
-8 -14 -11 0 -48 28 -42 32 3 2 14 8 25 14 24 14 32 44 11 44 -8 0 -22 -7 -30
-16 -10 -9 -25 -13 -38 -10 -13 3 -17 3 -10 0 25 -12 11 -24 -28 -24 -22 0
-40 5 -40 11 0 7 -15 9 -42 4 -31 -4 -39 -3 -28 4 10 7 11 11 3 11 -7 0 -13 5
-13 10 0 14 -72 81 -79 73 -3 -3 0 -8 7 -10 14 -5 16 -33 2 -33 -5 0 -10 -5
-10 -12 0 -6 -18 -29 -40 -50 -22 -22 -40 -46 -40 -54 0 -8 -8 -14 -19 -14
-13 0 -20 -9 -24 -30 -6 -30 -7 -30 -72 -30 -56 0 -66 -3 -79 -23 -24 -39 -28
-74 -8 -82 14 -6 12 -10 -13 -21 l-30 -14 30 1 c17 1 49 1 72 1 35 -2 42 -5
40 -22 -1 -18 -15 -24 -54 -23 -7 1 -13 -3 -13 -8 0 -14 -58 -11 -63 4 -4 10
-6 10 -6 0 -2 -21 -32 -14 -57 13 -26 27 -32 63 -11 65 6 1 -6 5 -28 9 -22 4
-44 4 -50 0 -5 -5 -13 -8 -17 -7 -4 1 -17 -6 -28 -15 -28 -25 -50 -23 -50 5 0
20 -4 22 -40 19 -31 -3 -40 -8 -40 -23 0 -12 -7 -19 -20 -19 -11 0 -20 -4 -20
-10 0 -5 -9 -10 -20 -10 -11 0 -20 -4 -20 -10 0 -5 18 -10 40 -10 22 0 40 5
40 10 0 6 7 10 15 10 12 0 13 -4 5 -19 -6 -12 -26 -22 -51 -26 -29 -5 -43 -13
-46 -26 -3 -10 -8 -19 -12 -20 -3 0 -19 -3 -35 -5 -16 -3 -32 -1 -35 5 -4 5
-32 11 -64 13 -31 2 -57 6 -57 11 0 4 9 7 20 7 11 0 20 4 20 10 0 6 -9 6 -26
0 -33 -13 -34 -13 -34 5 0 8 -4 15 -10 15 -5 0 -10 -18 -10 -39 0 -22 -5 -43
-12 -47 -7 -4 -8 -3 -4 4 4 7 2 12 -4 12 -19 0 -60 -32 -60 -46 0 -8 -9 -14
-19 -14 -11 0 -23 -4 -26 -10 -4 -6 5 -10 19 -10 33 0 35 -28 3 -55 l-22 -20
40 -6 c25 -4 16 -5 -25 -3 -36 2 -80 4 -97 4 -32 0 -33 2 -33 39 0 39 1 40 38
44 23 3 19 3 -11 2 -35 -2 -47 1 -43 10 3 8 -2 12 -12 10 -18 -2 -20 -20 -8
-72 6 -28 5 -33 -10 -33 -15 0 -13 -5 10 -29 17 -17 25 -34 21 -41 -4 -7 -2
-16 4 -20 7 -4 -2 -7 -20 -8 -17 0 -36 -5 -41 -10 -5 -5 23 -8 71 -7 82 3 88
0 82 -37 0 -5 14 -8 32 -8 25 0 34 4 34 18 0 9 -7 22 -16 29 -9 7 -11 13 -6
13 6 1 1 5 -10 10 -16 7 -17 9 -3 9 10 1 15 7 11 19 -7 29 37 43 120 36 125
-9 137 -12 137 -37 -1 -27 -21 -61 -38 -65 -8 -1 -11 1 -9 5 3 5 -35 8 -84 8
-86 0 -89 -1 -89 -22 0 -23 20 -29 80 -25 8 0 19 -6 23 -14 4 -8 14 -14 21
-14 7 0 12 -10 12 -22 -1 -22 2 -23 91 -24 100 -2 143 -9 143 -25 0 -6 -5 -7
-10 -4 -5 3 -10 0 -10 -7 0 -8 -9 -14 -20 -15 -11 -1 -18 2 -15 7 3 4 -30 8
-73 7 -57 -1 -80 -5 -89 -16 -9 -13 -16 -14 -31 -4 -14 8 -22 9 -31 0 -8 -8
-17 -7 -35 2 -17 10 -29 10 -44 2 -11 -6 -37 -11 -56 -11 -20 0 -36 -5 -36
-11 0 -8 -4 -8 -14 0 -28 23 -75 30 -114 17 -66 -22 -196 -6 -213 26 -9 17
-12 18 -22 5 -12 -15 -103 -29 -177 -26 -19 1 -47 1 -62 0 -54 -3 -134 -4
-241 -2 -86 2 -110 -1 -123 -13 -8 -9 -12 -16 -7 -16 4 0 9 -14 10 -30 2 -24
-2 -30 -18 -30 -18 0 -20 4 -14 30 l7 30 -49 1 c-47 1 -47 1 -15 10 36 11 41
25 12 34 -30 9 -60 -4 -60 -26 0 -21 -16 -26 -23 -6 -4 9 -6 9 -6 0 -1 -18
-31 -16 -31 2 0 8 -9 15 -20 15 -11 0 -20 -4 -20 -10 0 -5 5 -10 11 -10 5 0 7
-4 4 -10 -3 -5 -15 -10 -26 -10 -11 0 -18 4 -15 8 3 5 -9 6 -27 4 -18 -3 -26
-7 -19 -9 6 -3 10 -9 6 -14 -3 -5 -14 -4 -26 2 -12 6 -52 12 -90 13 -60 1 -72
-2 -90 -21 -12 -13 -26 -23 -33 -23 -16 0 -48 -59 -41 -76 3 -9 12 -14 19 -11
6 2 19 1 28 -4 20 -10 59 0 59 15 0 6 24 17 53 24 68 16 82 16 70 0 -13 -17
-15 -68 -4 -68 6 0 7 -17 4 -37 -5 -30 -4 -35 9 -30 12 4 14 1 11 -14 -3 -10
-9 -19 -14 -19 -5 0 -9 -17 -9 -38 0 -31 5 -41 24 -50 18 -8 22 -16 19 -36 -7
-33 -21 -33 -29 -2 -3 14 -15 27 -28 30 -21 5 -23 12 -25 78 -1 40 -5 83 -8
96 -8 34 -25 26 -19 -10 9 -61 15 -304 6 -278 -4 14 -8 40 -9 58 -1 18 -7 35
-14 38 -8 3 -13 29 -15 77 -2 102 -5 120 -20 136 -11 11 -16 11 -31 -3 -10 -9
-23 -16 -30 -16 -7 0 -20 -7 -28 -16 -12 -12 -27 -14 -56 -10 -52 9 -60 14
-54 37 4 15 0 19 -24 19 -22 0 -27 -4 -22 -16 5 -13 2 -15 -18 -9 -13 4 -54 7
-91 7 -42 -1 -72 3 -80 11 -7 7 -38 20 -68 28 -45 12 -63 13 -97 3 -35 -10
-42 -10 -47 2 -5 14 -46 20 -46 6 0 -13 -59 -34 -80 -27 -13 4 -39 -3 -70 -19
-52 -27 -80 -33 -80 -16 0 6 -9 10 -21 10 -13 0 -18 -4 -13 -12 4 -7 3 -8 -4
-4 -17 10 -64 -5 -58 -19 2 -7 -1 -18 -7 -24 -8 -8 -1 -11 29 -11 29 0 35 -3
24 -10 -8 -5 -23 -7 -34 -4 -10 4 -22 0 -27 -7 -6 -10 -9 -8 -9 8 0 18 -7 22
-50 25 -35 2 -50 -1 -50 -9 0 -7 -5 -13 -11 -13 -6 0 -9 -8 -7 -18 3 -10 -1
-23 -8 -30 -11 -10 -15 -8 -24 8 -6 11 -10 28 -8 38 5 29 -34 25 -69 -7 -30
-28 -31 -30 -13 -36 11 -4 20 -11 20 -17 0 -18 -60 -69 -72 -62 -7 5 -2 11 13
17 13 5 19 11 12 14 -7 2 -21 -1 -32 -7 -17 -8 -21 -8 -21 3 0 8 10 19 22 25
21 9 20 10 -10 7 -18 -2 -30 0 -27 5 9 15 -12 20 -24 6 -7 -8 -21 -12 -31 -9
-29 8 -73 -24 -67 -48 6 -22 -19 -39 -57 -39 -19 0 -26 -5 -26 -19 0 -23 -16
-37 -22 -19 -9 25 4 57 20 51 10 -4 13 -2 8 5 -4 7 -2 12 3 12 6 0 11 -4 11
-10 0 -5 9 -9 20 -7 22 3 40 17 22 17 -14 0 -6 41 10 53 10 6 9 8 -2 5 -8 -3
-19 -14 -25 -26 -5 -12 -19 -22 -30 -22 -11 0 -33 -7 -49 -15 -15 -8 -39 -15
-51 -15 -15 0 -32 -11 -45 -30 -18 -25 -26 -29 -55 -25 -24 3 -35 -1 -39 -12
-5 -12 -10 -13 -17 -6 -11 11 -22 8 -141 -44 l-37 -17 -1 -353 c0 -314 1 -353
15 -353 9 0 13 -5 10 -10 -4 -6 -11 -8 -16 -5 -5 4 -9 -431 -9 -1129 l0 -1136
2855 0 c2529 0 2856 2 2861 15 4 8 11 15 16 15 6 0 8 -7 4 -15 -5 -13 391 -15
3529 -15 l3535 0 0 2839 0 2840 -42 3 c-27 2 -56 -4 -78 -15 -30 -15 -35 -16
-38 -2 -3 12 -9 11 -33 -7 -36 -27 -172 -48 -347 -55 -91 -3 -121 -7 -115 -16
4 -7 0 -6 -10 2 -11 9 -17 10 -17 2 0 -6 -9 -11 -20 -11 -11 0 -19 5 -18 12 4
14 -155 12 -160 -3 -2 -5 -19 -9 -38 -9 -20 0 -34 -5 -34 -12 0 -8 -5 -6 -11
4 -9 16 -12 16 -42 -2 -23 -13 -62 -21 -135 -26 -56 -4 -105 -11 -108 -16 -3
-5 -21 -6 -40 -2 -27 5 -34 3 -34 -10 0 -9 -5 -16 -11 -16 -6 0 -9 7 -5 15 3
9 0 15 -8 15 -8 0 -16 -7 -20 -15 -3 -8 -11 -15 -18 -15 -9 0 -9 3 -1 11 8 8
2 19 -23 41 -18 16 -38 27 -43 24 -5 -3 -30 1 -56 8 -26 8 -53 12 -60 10 -7
-3 -15 4 -17 14 -5 17 -18 20 -92 27 -92 7 -123 1 -180 -39 -53 -36 -148 -37
-302 -1 -60 14 -136 30 -169 35 -33 6 -69 14 -80 19 -11 5 -40 13 -65 20 -144
36 -237 65 -250 76 -29 25 -186 83 -266 98 -49 9 -123 35 -190 65 l-109 50
-47 93 c-90 180 -99 204 -124 362 -33 198 -58 273 -119 345 -14 16 -25 34 -25
40 0 22 -256 46 -264 25z m-3611 -2443 c16 0 29 -35 27 -73 -2 -21 3 -30 23
-37 31 -12 33 -32 3 -29 -13 1 -31 -2 -41 -6 -22 -9 -35 1 -19 17 15 15 15 28
2 28 -10 0 -22 -8 -55 -38 -12 -11 -19 -11 -37 2 -12 9 -33 16 -45 16 -13 0
-23 4 -23 9 0 12 36 21 87 21 41 0 41 0 40 36 -1 20 -3 32 -5 25 -5 -16 -22
-14 -22 4 0 8 5 26 12 39 11 25 11 26 25 6 8 -11 20 -20 28 -20z m-2977 -963
c2 -10 0 -17 -5 -17 -28 -1 -33 -17 -15 -56 13 -26 18 -57 16 -94 -2 -30 -3
-84 -4 -119 0 -75 -6 -77 -15 -6 -9 61 -12 67 -34 60 -27 -8 -40 16 -42 76 -2
64 -12 79 -50 79 -16 0 -29 2 -29 4 0 2 -3 11 -6 20 -5 13 1 16 34 16 43 0 75
23 46 34 -8 3 -28 6 -42 7 -24 0 -25 1 -7 9 11 5 49 7 85 6 51 -2 66 -6 68
-19z"/>
</g>
</svg>
